<?xml version="1.0" encoding="UTF-8"?>
<svg version="1.1" xmlns="http://www.w3.org/2000/svg" width="512" height="512">
<path d="M0 0 C0.89332031 0.74121094 1.78664063 1.48242188 2.70703125 2.24609375 C8.91159431 7.59288312 14.04395682 13.49360485 19 20 C19.40750488 20.52722656 19.81500977 21.05445313 20.23486328 21.59765625 C39.77572948 47.04063094 49.93172144 78.18337386 46.3125 110.3125 C42.51965174 135.58071671 30.7532426 156.8072615 13 175 C12.46358887 175.56050049 11.92717773 176.12100098 11.37451172 176.69848633 C7.27650388 180.91042411 2.95307401 184.54734173 -1.75 188.0625 C-2.47807861 188.61341309 -3.20615723 189.16432617 -3.95629883 189.73193359 C-9.4976811 193.91137588 -15.09226078 198.01813842 -20.6875 202.125 C-49.2016695 223.09409407 -67.38263693 242.64568264 -77.98486328 277.26147461 C-81.54278516 288.57266214 -86.16666228 299.20525054 -97.0078125 305.08984375 C-103.56753857 307.88094288 -109.41796814 307.76962011 -116.0625 305.4375 C-127.05197267 300.52159849 -131.65873663 290.69784705 -136 280 C-145.96409738 252.46997491 -143.84450735 220.93984301 -131.546875 194.55078125 C-126.2256711 183.73090301 -120.09684221 173.94066152 -112 165 C-111.50806152 164.4544043 -111.01612305 163.90880859 -110.50927734 163.34667969 C-102.72994251 154.86419834 -94.06066673 147.97482433 -84.74316406 141.26025391 C-81.07791783 138.61039382 -77.50740448 135.85471079 -74 133 C-73.16984375 132.32839844 -72.3396875 131.65679687 -71.484375 130.96484375 C-62.83816206 123.6259175 -55.64461336 114.52960525 -54 103 C-53.76508535 95.21717554 -55.22124932 88.78272155 -59 82 C-59.556875 80.989375 -60.11375 79.97875 -60.6875 78.9375 C-69.00496711 68.37206881 -79.48730973 63.07723931 -92.75 61.28125 C-117.28768582 59.15779642 -137.51238125 65.37465756 -157.47265625 79.78515625 C-169.01432766 88.1075976 -183.21465667 96.12928084 -198 94 C-210.17465138 91.33961322 -218.70912803 86.13191597 -226 76 C-234.86240139 61.68701372 -236.80579077 46.70385873 -233.0234375 30.55078125 C-226.9746525 9.56472946 -208.24439262 -4.51795219 -189.9609375 -14.875 C-171.31375362 -25.05127426 -151.41102298 -31.05420908 -130.36376953 -33.69873047 C-127.98653715 -34.00171588 -125.61754485 -34.3463885 -123.24609375 -34.69140625 C-81.44299518 -40.3081965 -32.37878494 -27.27772136 0 0 Z " fill="#000000" transform="translate(350,48)"/>
<path d="M0 0 C1.64476318 0.01244751 1.64476318 0.01244751 3.32275391 0.02514648 C18.57765188 0.34243933 30.44568822 4.7190113 41.9375 15 C52.26072685 25.87549825 56.09002787 41.36439491 55.8359375 56 C54.88547978 71.6075163 49.33027978 84.8777695 37.6875 95.4375 C36.76904297 96.27087891 36.76904297 96.27087891 35.83203125 97.12109375 C23.67586017 107.41730423 8.13060935 110.28819041 -7.4296875 109.1640625 C-20.38163103 107.9138749 -32.67274172 102.2319396 -41.62109375 92.63671875 C-52.23911825 78.8308347 -56.71993006 62.93402965 -55.0390625 45.62109375 C-53.0223362 31.02836665 -46.87593728 19.76647661 -35.7265625 10.2578125 C-25.17615609 2.30232805 -12.96878541 -0.12698811 0 0 Z " fill="#000000" transform="translate(251.3125,390.5625)"/>
</svg>
