<?xml version="1.0" encoding="UTF-8"?>
<svg version="1.1" xmlns="http://www.w3.org/2000/svg" width="250" height="250">
<path d="M0 0 C0.91807938 -0.00960754 1.83615875 -0.01921509 2.78205872 -0.02911377 C3.76752182 -0.03336365 4.75298492 -0.03761353 5.76831055 -0.04199219 C7.29973946 -0.0505423 7.29973946 -0.0505423 8.86210632 -0.05926514 C11.02150438 -0.06870522 13.18091678 -0.07524518 15.34033203 -0.07910156 C18.63233771 -0.08880033 21.92371712 -0.11983078 25.21557617 -0.15136719 C27.31648393 -0.15789837 29.41739615 -0.16314839 31.51831055 -0.16699219 C32.98739616 -0.18551239 32.98739616 -0.18551239 34.48616028 -0.20440674 C40.22214944 -0.1858476 44.29000775 0.37359197 49.3425293 3.16113281 C53.35648292 7.49197752 54.4727698 9.96044985 54.4050293 15.78613281 C54.39600586 16.78902344 54.38698242 17.79191406 54.37768555 18.82519531 C54.36608398 19.59605469 54.35448242 20.36691406 54.3425293 21.16113281 C55.23669556 21.14447823 55.23669556 21.14447823 56.14892578 21.12748718 C62.378509 21.01648289 68.60780924 20.94129586 74.83813477 20.88647461 C77.16019105 20.86140015 79.48216894 20.82733189 81.80395508 20.78393555 C85.15034371 20.72297476 88.49568482 20.69485132 91.8425293 20.67285156 C93.38831665 20.63414192 93.38831665 20.63414192 94.96533203 20.59465027 C101.72777288 20.59204538 106.10614377 21.79773144 111.3425293 26.16113281 C117.84801854 32.83781914 117.6216073 40.10205853 117.5378418 48.90332031 C117.5350119 50.02682892 117.53218201 51.15033752 117.52926636 52.30789185 C117.51810233 55.88408208 117.4930043 59.46001871 117.4675293 63.03613281 C117.45749463 65.46581669 117.44836963 67.8955045 117.44018555 70.32519531 C117.41817533 76.27059383 117.38473518 82.2158452 117.3425293 88.16113281 C118.63132996 88.15114006 118.63132996 88.15114006 119.94616699 88.14094543 C128.06695631 88.08068537 136.18766987 88.03508291 144.3086319 88.0056963 C148.48311447 87.99008013 152.65741137 87.96891649 156.83178711 87.93481445 C160.86480011 87.90207569 164.89763518 87.88424938 168.93077087 87.87650108 C170.46486713 87.87098351 171.99895431 87.86020927 173.53297424 87.84394264 C190.95955815 87.66660176 190.95955815 87.66660176 197.3659668 92.77441406 C197.81198242 93.33515625 198.25799805 93.89589844 198.7175293 94.47363281 C199.40975586 95.30314453 199.40975586 95.30314453 200.1159668 96.14941406 C202.79451879 100.54258054 203.59162279 104.89654126 203.61376953 109.97949219 C203.62904945 111.66153748 203.62904945 111.66153748 203.64463806 113.37756348 C203.64677811 114.57457886 203.64891815 115.77159424 203.65112305 117.00488281 C203.67627485 119.55566643 203.70167299 122.10644763 203.72729492 124.65722656 C203.75606962 128.66650052 203.78031546 132.67572712 203.79882812 136.68505859 C203.82047374 140.56271528 203.85990357 144.43989205 203.90112305 148.31738281 C203.90129677 150.11290588 203.90129677 150.11290588 203.901474 151.94470215 C203.97369778 158.0164073 204.47004226 161.75253773 207.3425293 167.16113281 C207.69710268 170.31463384 207.5724813 173.4313069 207.4675293 176.59863281 C207.44264298 178.47293876 207.42137241 180.34729546 207.40332031 182.22167969 C207.39164825 183.19355225 207.3799762 184.1654248 207.36795044 185.16674805 C207.21935363 202.67013161 207.63802909 216.75810682 218.34863281 231.38574219 C219.3425293 233.16113281 219.3425293 233.16113281 219.3425293 237.16113281 C216.3425293 238.16113281 216.3425293 238.16113281 213.94287109 237.00537109 C212.50681519 236.12727783 212.50681519 236.12727783 211.04174805 235.23144531 C192.36991534 224.57038722 176.61545732 222.17949906 155.1884613 223.18276978 C150.04370196 223.37359665 144.714974 223.11866566 140.6003418 219.72363281 C137.46808973 215.40328514 136.21205645 213.3380148 136.2800293 208.03613281 C136.28905273 207.12605469 136.29807617 206.21597656 136.30737305 205.27832031 C136.32477539 204.2303125 136.32477539 204.2303125 136.3425293 203.16113281 C135.14241211 203.17684326 133.94229492 203.19255371 132.70581055 203.20874023 C128.22557364 203.26330737 123.74536575 203.29757988 119.26489258 203.32592773 C117.33092295 203.34095356 115.39698704 203.36138008 113.46313477 203.38745117 C110.67284794 203.42410873 107.88301418 203.44092149 105.0925293 203.45410156 C103.80922729 203.47732735 103.80922729 203.47732735 102.5 203.50102234 C95.97620902 203.50282454 90.20496963 202.59641653 85.06518555 198.22363281 C84.51733398 197.54300781 83.96948242 196.86238281 83.4050293 196.16113281 C82.83913086 195.48050781 82.27323242 194.79988281 81.69018555 194.09863281 C79.35365664 190.73944922 79.21957455 187.92508128 79.22900391 183.95532227 C79.2291172 182.36401237 79.2291172 182.36401237 79.22923279 180.74055481 C79.23439407 179.59672836 79.23955536 178.45290192 79.24487305 177.27441406 C79.24628799 176.10226852 79.24770294 174.93012299 79.24916077 173.72245789 C79.25476541 169.97282374 79.26731873 166.22324896 79.2800293 162.47363281 C79.2850437 159.93392013 79.28960671 157.39420652 79.29370117 154.85449219 C79.30473636 148.62335209 79.32147904 142.39224669 79.3425293 136.16113281 C78.43543716 136.16779465 77.52834503 136.17445648 76.59376526 136.18132019 C68.01708517 136.24159958 59.44047694 136.28719249 50.86363316 136.31656933 C46.45489477 136.33218032 42.04633242 136.35333446 37.63769531 136.38745117 C33.37774376 136.42020843 29.11796083 136.43802012 24.85789299 136.44576454 C23.23810105 136.45127882 21.61831764 136.46204646 19.9985981 136.47832298 C10.40080681 136.57087617 2.04356041 136.58175148 -6.4699707 131.47363281 C-12.2792453 125.33239967 -13.25590145 118.96020549 -13.2668457 110.75488281 C-13.28338196 109.78957642 -13.29991821 108.82427002 -13.31695557 107.82971191 C-13.36519534 104.77345261 -13.38675318 101.71769 -13.4074707 98.66113281 C-13.43565045 96.57777481 -13.46558066 94.49443971 -13.49731445 92.41113281 C-13.57094794 87.32784041 -13.62066917 82.24481987 -13.6574707 77.16113281 C-14.40512695 77.53367187 -15.1527832 77.90621094 -15.9230957 78.29003906 C-16.90793945 78.763125 -17.8927832 79.23621094 -18.9074707 79.72363281 C-19.88200195 80.19929688 -20.8565332 80.67496094 -21.8605957 81.16503906 C-24.75603367 82.19623554 -25.85713232 82.27460069 -28.6574707 81.16113281 C-28.3186017 77.63813225 -27.16268354 75.12155762 -25.40527344 72.11962891 C-17.67442092 58.78708934 -16.31333846 48.00543928 -16.7199707 32.78613281 C-16.76129281 29.77227703 -16.78812626 26.75907807 -16.80015564 23.7449646 C-16.81148161 21.89270841 -16.8413916 20.0404359 -16.89332581 18.18887329 C-16.97000035 13.05424617 -16.53629897 9.60754662 -13.6574707 5.16113281 C-9.27039719 0.99903743 -5.90856296 0.05011924 0 0 Z M-9.6574707 8.16113281 C-11.74309031 11.28956223 -11.89974064 11.91511868 -11.84936523 15.45458984 C-11.84341339 16.32044708 -11.83746155 17.18630432 -11.83132935 18.07839966 C-11.81778412 19.01577972 -11.80423889 19.95315979 -11.7902832 20.91894531 C-11.79109133 22.92806142 -11.79375956 24.93717747 -11.7980957 26.94628906 C-11.79614997 30.09496755 -11.78312648 33.24178403 -11.73657227 36.39013672 C-11.54721028 50.91789582 -13.14956892 61.58683664 -20.6574707 74.16113281 C-16.56366973 72.96683043 -13.13456404 71.33301146 -9.46214294 69.18095398 C0.74610064 63.38158583 9.88800458 63.10971755 21.4050293 63.34863281 C24.00756473 63.37500904 26.60935077 63.38966445 29.21202087 63.38850403 C30.8126991 63.39050477 32.41348382 63.40924785 34.01368713 63.44828796 C39.20515215 63.49123236 42.82918889 62.82977795 47.3425293 60.16113281 C50.83506153 55.38197203 50.78283958 50.72583189 50.7409668 45.03613281 C50.74383698 44.17101074 50.74670715 43.30588867 50.74966431 42.41455078 C50.75169828 40.59244123 50.74621523 38.7703095 50.73364258 36.94824219 C50.7175791 34.16974761 50.73351365 31.39270751 50.75268555 28.61425781 C50.750703 26.83821296 50.74685908 25.062169 50.7409668 23.28613281 C50.74703949 22.46097168 50.75311218 21.63581055 50.7593689 20.78564453 C50.69989378 15.87359494 50.19741491 12.34091618 47.3425293 8.16113281 C42.87906706 4.08397311 37.45745745 4.72755656 31.7487793 4.76269531 C30.72449829 4.75982513 29.70021729 4.75695496 28.64489746 4.7539978 C26.48306728 4.75195974 24.32121855 4.75747153 22.15942383 4.77001953 C18.85415331 4.78607634 15.55010562 4.77016157 12.24487305 4.75097656 C10.14200577 4.75295904 8.03913925 4.75680281 5.9362793 4.76269531 C4.94970337 4.75662262 3.96312744 4.75054993 2.94665527 4.74429321 C-3.85829184 4.79905676 -3.85829184 4.79905676 -9.6574707 8.16113281 Z M61.3425293 57.16113281 C61.3425293 58.15113281 61.3425293 59.14113281 61.3425293 60.16113281 C73.5525293 60.16113281 85.7625293 60.16113281 98.3425293 60.16113281 C97.8475293 58.67613281 97.8475293 58.67613281 97.3425293 57.16113281 C85.4625293 57.16113281 73.5825293 57.16113281 61.3425293 57.16113281 Z M9.3425293 76.16113281 C9.3425293 77.15113281 9.3425293 78.14113281 9.3425293 79.16113281 C38.3825293 79.16113281 67.4225293 79.16113281 97.3425293 79.16113281 C97.3425293 78.17113281 97.3425293 77.18113281 97.3425293 76.16113281 C68.3025293 76.16113281 39.2625293 76.16113281 9.3425293 76.16113281 Z M8.3425293 93.16113281 C8.3425293 93.82113281 8.3425293 94.48113281 8.3425293 95.16113281 C10.76027511 96.37000572 12.27583994 96.28172624 14.97583008 96.2746582 C15.93667511 96.27458267 16.89752014 96.27450714 17.88748169 96.27442932 C19.44690994 96.26668739 19.44690994 96.26668739 21.0378418 96.25878906 C22.10042206 96.25737411 23.16300232 96.25595917 24.25778198 96.25450134 C27.66105939 96.24889115 31.06427168 96.2363369 34.4675293 96.22363281 C36.77091377 96.21861913 39.07429926 96.21405599 41.37768555 96.20996094 C47.03265579 96.19891841 52.68758789 96.18217033 58.3425293 96.16113281 C58.3425293 94.84113281 58.3425293 93.52113281 58.3425293 92.16113281 C51.54322094 92.13583802 44.74392466 92.11828933 37.94458008 92.10620117 C35.63012234 92.10116338 33.3156678 92.09433301 31.0012207 92.08569336 C27.68008639 92.07360358 24.35899405 92.06789906 21.0378418 92.06347656 C19.99822296 92.05831528 18.95860413 92.05315399 17.88748169 92.0478363 C16.92663666 92.04776077 15.96579163 92.04768524 14.97583008 92.04760742 C14.12755646 92.04538681 13.27928284 92.0431662 12.40530396 92.0408783 C10.27850536 92.02881098 10.27850536 92.02881098 8.3425293 93.16113281 Z M86.5300293 98.97363281 C82.95371733 104.18483025 83.21547336 109.41471034 83.19726562 115.60009766 C83.19390701 116.31964127 83.1905484 117.03918488 83.18708801 117.78053284 C83.17763791 120.14439653 83.17563795 122.50818894 83.17456055 124.87207031 C83.171344 126.52584868 83.16797963 128.17962676 83.16447449 129.83340454 C83.15849819 133.29486755 83.15663306 136.75630564 83.15722656 140.21777344 C83.15732814 144.63811446 83.14367423 149.05829469 83.12645435 153.47859764 C83.11529877 156.89310429 83.11330844 160.30757249 83.11383629 163.72209549 C83.1126616 165.35106587 83.10826875 166.98003742 83.10050392 168.60898972 C83.09063117 170.89389856 83.09361038 173.17846371 83.09960938 175.46337891 C83.09818436 176.75988373 83.09675934 178.05638855 83.09529114 179.3921814 C83.41375606 184.24692886 83.87510876 189.29768553 86.96362305 193.21972656 C87.56303711 193.67476563 88.16245117 194.12980469 88.7800293 194.59863281 C89.6752832 195.30826172 89.6752832 195.30826172 90.58862305 196.03222656 C93.53035161 197.92567769 96.04196899 198.28513454 99.44677734 198.2746582 C100.6777137 198.27454491 100.6777137 198.27454491 101.93351746 198.27442932 C102.81485855 198.26926804 103.69619965 198.26410675 104.60424805 198.25878906 C105.51004105 198.25737411 106.41583405 198.25595917 107.34907532 198.25450134 C110.2427602 198.24890283 113.13636779 198.23635062 116.0300293 198.22363281 C117.99161672 198.21861762 119.95320536 198.21405475 121.91479492 198.20996094 C126.72406951 198.19893388 131.5332863 198.18167028 136.3425293 198.16113281 C136.351875 197.19288574 136.3612207 196.22463867 136.37084961 195.22705078 C136.41089712 191.61477634 136.47669483 188.00334046 136.55004883 184.39160156 C136.57817342 182.83214131 136.59943019 181.27254077 136.61352539 179.71289062 C136.63507472 177.46314108 136.68177986 175.21506307 136.7331543 172.96582031 C136.73499725 171.92951981 136.73499725 171.92951981 136.73687744 170.87228394 C136.88588874 165.88299291 138.14921936 162.96843236 141.3425293 159.16113281 C144.49712437 157.15104607 146.95772191 156.91644325 150.66186523 156.93408203 C151.72266296 156.93423309 152.78346069 156.93438416 153.87640381 156.93453979 C155.01506897 156.94486237 156.15373413 156.95518494 157.3269043 156.96582031 C159.08300018 156.97006516 159.08300018 156.97006516 160.87457275 156.97439575 C164.61399554 156.98559126 168.35317889 157.01069505 172.0925293 157.03613281 C174.62768209 157.04616341 177.16283863 157.05528912 179.69799805 157.06347656 C185.9129235 157.08552855 192.12770929 157.11900006 198.3425293 157.16113281 C198.44416537 149.74141167 198.51409425 142.32187089 198.56225586 134.90161133 C198.58233893 132.37875662 198.60961087 129.85594828 198.64428711 127.33325195 C198.69294842 123.70154359 198.71553195 120.0704521 198.7331543 116.43847656 C198.75379944 115.31529526 198.77444458 114.19211395 198.79571533 113.03489685 C198.79757839 106.49486424 198.26269533 102.46972888 194.3425293 97.16113281 C189.58108689 92.83254881 184.80208058 93.00818408 178.65185547 93 C177.76372665 92.9950351 176.87559784 92.99007019 175.96055603 92.98495483 C173.01886218 92.97033548 170.07722227 92.96353144 167.13549805 92.95800781 C165.09149677 92.952256 163.04749551 92.94649827 161.00349426 92.94073486 C156.71538034 92.9302254 152.42728515 92.92438243 148.13916016 92.92089844 C142.64793563 92.91541503 137.15695923 92.89138996 131.66581249 92.86292648 C127.4424416 92.84429051 123.21913035 92.83909398 118.99572182 92.83756256 C116.971547 92.83453748 114.9473732 92.82651384 112.92323875 92.81337738 C110.08909683 92.79629765 107.25555942 92.79820194 104.42138672 92.8046875 C103.58740356 92.79547272 102.75342041 92.78625793 101.89416504 92.77676392 C95.37129525 92.82345566 91.2606201 94.24304201 86.5300293 98.97363281 Z M143.3425293 163.16113281 C139.84999706 167.9402936 139.90221901 172.59643374 139.9440918 178.28613281 C139.94122162 179.15125488 139.93835144 180.01637695 139.93539429 180.90771484 C139.93336032 182.7298244 139.93884336 184.55195612 139.95141602 186.37402344 C139.96747949 189.15251802 139.95154494 191.92955812 139.93237305 194.70800781 C139.9343556 196.48405267 139.93819952 198.26009662 139.9440918 200.03613281 C139.9380191 200.86129395 139.93194641 201.68645508 139.9256897 202.53662109 C139.98516482 207.44867068 140.48764368 210.98134945 143.3425293 215.16113281 C147.47539138 218.73574031 151.63926765 218.48998613 156.8425293 218.32128906 C158.5428557 218.30212259 160.24322016 218.28612731 161.94360352 218.27294922 C162.82691345 218.26338196 163.71022339 218.2538147 164.62030029 218.24395752 C180.23490672 218.12737574 192.33525742 218.78055251 205.9597168 227.10644531 C207.07604492 227.78449219 208.19237305 228.46253906 209.3425293 229.16113281 C210.0025293 228.83113281 210.6625293 228.50113281 211.3425293 228.16113281 C210.77300537 227.27441895 210.20348145 226.38770508 209.61669922 225.47412109 C202.47994226 213.47034865 202.34428096 202.72233017 202.6550293 189.03613281 C202.70693501 185.99518203 202.74665415 182.95572613 202.75663757 179.91433716 C202.76421957 178.03977031 202.7960563 176.16508801 202.85627747 174.29147339 C202.88740948 170.01433557 202.74381011 167.0614638 200.06591797 163.60693359 C196.44892087 160.35860756 193.79200856 160.04409777 189.05224609 160 C188.21424973 159.99039246 187.37625336 159.98078491 186.51286316 159.97088623 C185.61489517 159.96663635 184.71692719 159.96238647 183.79174805 159.95800781 C182.85957962 159.95230774 181.92741119 159.94660767 180.96699524 159.94073486 C178.99591197 159.93129798 177.02481302 159.92475609 175.05371094 159.92089844 C172.05139369 159.91120181 169.04976386 159.88016962 166.04760742 159.84863281 C164.12899168 159.84210129 162.21037106 159.8368514 160.29174805 159.83300781 C158.95390511 159.81448761 158.95390511 159.81448761 157.58903503 159.79559326 C152.09541919 159.81504789 148.09377431 160.28700228 143.3425293 163.16113281 Z " fill="#38B6FF" transform="translate(29.657470703125,5.8388671875)"/>
<path d="M0 0 C0.99 0.33 1.98 0.66 3 1 C3 4.63 3 8.26 3 12 C9.6 12 16.2 12 23 12 C23 13.32 23 14.64 23 16 C19.7 16 16.4 16 13 16 C12.95875 17.051875 12.9175 18.10375 12.875 19.1875 C12.12150618 25.62117796 8.8542983 31.27394593 6 37 C10.31041339 39.70604116 14.62351881 42.4014643 19 45 C18.67 46.32 18.34 47.64 18 49 C12.4887413 48.71737135 9.43206514 46.38753094 5.24609375 43.08203125 C3.01983819 41.7124772 3.01983819 41.7124772 0.53125 42.6328125 C-2.03148525 44.01700592 -4.4876235 45.48730295 -6.9375 47.0625 C-10.6414536 49.33802307 -13.56916292 50.76679805 -18 51 C-18.33 49.68 -18.66 48.36 -19 47 C-18.09636719 46.52949219 -17.19273437 46.05898437 -16.26171875 45.57421875 C-15.07016014 44.94560122 -13.87876228 44.31667891 -12.6875 43.6875 C-11.79514648 43.2244043 -11.79514648 43.2244043 -10.88476562 42.75195312 C-7.84554523 41.13895906 -5.24623788 39.63547765 -3 37 C-3.40992188 36.40832031 -3.81984375 35.81664062 -4.2421875 35.20703125 C-4.78101563 34.41683594 -5.31984375 33.62664062 -5.875 32.8125 C-6.40867188 32.03519531 -6.94234375 31.25789063 -7.4921875 30.45703125 C-11.22330527 24.37704918 -11.22330527 24.37704918 -10.625 20.6875 C-10.315625 19.8521875 -10.315625 19.8521875 -10 19 C-8.1953125 19.15625 -8.1953125 19.15625 -6 20 C-4.3671875 22.46875 -4.3671875 22.46875 -2.875 25.5 C-1.17605464 29.46431737 -1.17605464 29.46431737 2 32 C2.81917642 30.27398621 3.63006016 28.5440353 4.4375 26.8125 C4.88996094 25.84957031 5.34242188 24.88664062 5.80859375 23.89453125 C7.22115669 20.72568951 7.22115669 20.72568951 8 16 C-1.24 16 -10.48 16 -20 16 C-20 14.68 -20 13.36 -20 12 C-13.73 12 -7.46 12 -1 12 C-1.020625 10.205625 -1.04125 8.41125 -1.0625 6.5625 C-1.0838122 4.70833878 -1.07226502 2.85287502 -1 1 C-0.67 0.67 -0.34 0.34 0 0 Z " fill="#38B6FF" transform="translate(202,168)"/>
<path d="M0 0 C2.24633789 -0.07373047 2.24633789 -0.07373047 5 1 C6.82293841 3.86336121 7.89708883 7.00173925 9.05859375 10.1796875 C9.58780174 11.56524338 9.58780174 11.56524338 10.12770081 12.97879028 C10.86916617 14.93386923 11.60068588 16.89274458 12.32299805 18.85498047 C13.43397104 21.8654374 14.58045181 24.86049424 15.73242188 27.85546875 C16.44746637 29.75439868 17.16042855 31.6541143 17.87109375 33.5546875 C18.21571152 34.45476532 18.56032928 35.35484314 18.91539001 36.28219604 C19.21973465 37.11961334 19.52407928 37.95703064 19.83764648 38.81982422 C20.11124496 39.55627167 20.38484344 40.29271912 20.66673279 41.05148315 C21 43 21 43 19 46 C18.01 45.67 17.02 45.34 16 45 C14.25327015 41.5065403 13 38.93154432 13 35 C2.605 35.495 2.605 35.495 -8 36 C-9.32 38.97 -10.64 41.94 -12 45 C-13.32 45 -14.64 45 -16 45 C-15.43084491 39.21078348 -13.80328087 34.37633627 -11.62109375 29.00390625 C-11.28956802 28.17036118 -10.9580423 27.3368161 -10.61647034 26.47801208 C-9.56398917 23.83657428 -8.50093663 21.19954357 -7.4375 18.5625 C-6.71869663 16.76395324 -6.00059029 14.96512774 -5.28320312 13.16601562 C-3.53018422 8.77407742 -1.76767682 4.38605803 0 0 Z M2 9 C-0.96415819 15.9241798 -3.72564796 22.81783567 -6 30 C-0.72 30 4.56 30 10 30 C7.9376064 22.88474206 5.59810321 15.93706745 3 9 C2.67 9 2.34 9 2 9 Z " fill="#38B6FF" transform="translate(47,16)"/>
<path d="M0 0 C27.06 0 54.12 0 82 0 C82.495 2.475 82.495 2.475 83 5 C55.28 5 27.56 5 -1 5 C-0.67 3.35 -0.34 1.7 0 0 Z " fill="#38B6FF" transform="translate(132,125)"/>
<path d="M0 0 C20.36109946 -0.14998543 40.65406283 0.24607545 61 1 C61.5625 2.9375 61.5625 2.9375 62 5 C60.28309927 6.71690073 58.02681818 6.13018536 55.68359375 6.1328125 C54.54108154 6.13474609 53.39856934 6.13667969 52.22143555 6.13867188 C50.97273682 6.13416016 49.72403809 6.12964844 48.4375 6.125 C47.16237549 6.12306641 45.88725098 6.12113281 44.57348633 6.11914062 C29.70782117 6.06858759 14.85425747 5.55042878 0 5 C0 3.35 0 1.7 0 0 Z " fill="#38B6FF" transform="translate(131,147)"/>
</svg>
