<?xml version="1.0" encoding="UTF-8"?>
<svg xmlns="http://www.w3.org/2000/svg" xmlns:xlink="http://www.w3.org/1999/xlink" width="250px" height="250px" viewBox="0 0 250 250" version="1.1">
<g id="surface1">
<path style=" stroke:none;fill-rule:nonzero;fill:rgb(55.29412%,83.137256%,89.411765%);fill-opacity:1;" d="M 216.433594 3.007812 C 214.261719 4.710938 212.039062 6.339844 209.796875 7.945312 C 208.925781 8.570312 208.058594 9.195312 207.191406 9.824219 C 207.019531 9.945312 206.847656 10.070312 206.671875 10.199219 C 205.21875 11.246094 203.777344 12.308594 202.339844 13.371094 C 200.929688 14.410156 199.515625 15.4375 198.09375 16.460938 C 196.832031 17.367188 195.578125 18.289062 194.328125 19.214844 C 192.046875 20.898438 189.75 22.558594 187.445312 24.214844 C 185.304688 25.757812 183.167969 27.3125 181.042969 28.882812 C 179.636719 29.921875 178.21875 30.945312 176.796875 31.96875 C 175.535156 32.878906 174.28125 33.796875 173.03125 34.722656 C 170.75 36.40625 168.453125 38.066406 166.152344 39.722656 C 164.007812 41.265625 161.871094 42.820312 159.746094 44.390625 C 158.339844 45.429688 156.921875 46.457031 155.503906 47.476562 C 154.242188 48.386719 152.988281 49.308594 151.734375 50.230469 C 149.457031 51.917969 147.15625 53.574219 144.855469 55.234375 C 142.898438 56.640625 140.945312 58.058594 139.003906 59.492188 C 136.722656 61.175781 134.425781 62.835938 132.121094 64.492188 C 129.980469 66.035156 127.84375 67.589844 125.71875 69.160156 C 124.480469 70.074219 123.238281 70.976562 121.992188 71.875 C 118.878906 74.117188 115.792969 76.394531 112.730469 78.703125 C 114.972656 81.707031 117.253906 84.679688 119.542969 87.648438 C 120.878906 89.386719 122.207031 91.128906 123.539062 92.871094 C 124.980469 94.757812 126.421875 96.644531 127.871094 98.523438 C 128.707031 99.609375 129.535156 100.695312 130.367188 101.78125 C 131.121094 102.773438 131.878906 103.757812 132.640625 104.746094 C 133.660156 106.070312 134.675781 107.398438 135.691406 108.726562 C 136.445312 109.714844 137.203125 110.703125 137.964844 111.691406 C 138.984375 113.015625 140 114.34375 141.015625 115.671875 C 141.769531 116.660156 142.527344 117.648438 143.285156 118.632812 C 144.308594 119.960938 145.324219 121.289062 146.339844 122.617188 C 147.09375 123.605469 147.851562 124.59375 148.609375 125.578125 C 149.632812 126.902344 150.648438 128.230469 151.664062 129.5625 C 152.417969 130.550781 153.175781 131.535156 153.933594 132.523438 C 154.953125 133.847656 155.96875 135.171875 156.980469 136.5 C 157.96875 137.789062 158.957031 139.074219 159.949219 140.363281 C 160.101562 140.5625 160.257812 140.765625 160.417969 140.972656 C 160.601562 141.15625 160.601562 141.15625 160.789062 141.34375 C 161.285156 142.199219 161.191406 143.007812 161.167969 143.976562 C 161.164062 144.183594 161.160156 144.386719 161.160156 144.597656 C 161.121094 146.808594 161.015625 149.015625 160.902344 151.222656 C 160.878906 151.671875 160.855469 152.121094 160.835938 152.570312 C 160.773438 153.773438 160.714844 154.972656 160.652344 156.175781 C 160.585938 157.441406 160.523438 158.707031 160.457031 159.972656 C 160.351562 162.089844 160.242188 164.210938 160.136719 166.332031 C 160.007812 168.777344 159.886719 171.226562 159.761719 173.671875 C 159.628906 176.289062 159.496094 178.902344 159.363281 181.519531 C 159.324219 182.269531 159.289062 183.019531 159.25 183.769531 C 159.191406 184.949219 159.128906 186.128906 159.070312 187.308594 C 159.046875 187.738281 159.023438 188.167969 159.003906 188.601562 C 158.941406 189.855469 158.871094 191.109375 158.796875 192.359375 C 158.773438 192.738281 158.773438 192.738281 158.753906 193.125 C 158.738281 193.335938 158.722656 193.542969 158.707031 193.757812 C 158.691406 194.011719 158.691406 194.011719 158.671875 194.269531 C 158.566406 194.675781 158.566406 194.675781 157.898438 195.253906 C 157.601562 195.394531 157.300781 195.53125 156.996094 195.65625 C 156.835938 195.734375 156.675781 195.808594 156.507812 195.886719 C 155.976562 196.132812 155.441406 196.367188 154.90625 196.601562 C 154.53125 196.769531 154.160156 196.941406 153.789062 197.113281 C 153.039062 197.457031 152.285156 197.796875 151.53125 198.132812 C 150.320312 198.671875 149.117188 199.234375 147.917969 199.792969 C 147.132812 200.160156 146.347656 200.523438 145.558594 200.886719 C 143.90625 201.652344 142.265625 202.445312 140.625 203.242188 C 138.445312 204.300781 136.257812 205.335938 134.058594 206.351562 C 131.757812 207.410156 129.476562 208.5 127.199219 209.605469 C 124.621094 210.863281 122.03125 212.089844 119.421875 213.289062 C 118.167969 213.867188 116.914062 214.453125 115.667969 215.0625 C 115.445312 215.171875 115.21875 215.28125 114.984375 215.394531 C 114.566406 215.601562 114.144531 215.808594 113.726562 216.015625 C 113.542969 216.105469 113.359375 216.195312 113.171875 216.289062 C 112.933594 216.40625 112.933594 216.40625 112.691406 216.527344 C 112.269531 216.667969 112.269531 216.667969 111.574219 216.433594 C 111.640625 216.15625 111.707031 215.878906 111.777344 215.589844 C 113.273438 209.476562 113.273438 209.476562 114.480469 203.296875 C 114.746094 201.714844 115.066406 200.148438 115.40625 198.582031 C 115.457031 198.355469 115.503906 198.132812 115.554688 197.898438 C 115.753906 197.003906 115.957031 196.121094 116.21875 195.238281 C 116.394531 194.59375 116.503906 194.007812 116.59375 193.347656 C 117.09375 189.769531 117.09375 189.769531 118.546875 188.597656 C 118.996094 188.300781 119.449219 188.011719 119.90625 187.730469 C 120.296875 187.429688 120.683594 187.121094 121.066406 186.804688 C 121.65625 186.332031 122.25 185.859375 122.84375 185.390625 C 124.222656 184.289062 125.480469 183.113281 126.714844 181.851562 C 127.496094 181.066406 128.320312 180.339844 129.167969 179.628906 C 128.855469 178.933594 128.519531 178.472656 127.964844 177.953125 C 127.390625 177.394531 126.851562 176.824219 126.332031 176.214844 C 125.457031 175.195312 124.496094 174.265625 123.53125 173.335938 C 122.917969 172.683594 122.917969 172.683594 121.757812 171.066406 C 124.28125 168.542969 126.800781 166.023438 129.398438 163.425781 C 129.058594 162.578125 128.84375 162.078125 128.328125 161.382812 C 128.210938 161.21875 128.089844 161.054688 127.964844 160.886719 C 127.835938 160.710938 127.707031 160.539062 127.574219 160.359375 C 127.300781 159.984375 127.027344 159.609375 126.753906 159.234375 C 126.613281 159.042969 126.476562 158.855469 126.332031 158.660156 C 125.722656 157.824219 125.128906 156.980469 124.535156 156.132812 C 123.582031 154.777344 122.617188 153.425781 121.644531 152.082031 C 120.554688 150.578125 119.476562 149.0625 118.40625 147.542969 C 117.574219 146.363281 116.734375 145.191406 115.886719 144.023438 C 114.679688 142.363281 113.496094 140.683594 112.324219 138.996094 C 111.296875 137.527344 110.253906 136.074219 109.203125 134.625 C 108.363281 133.46875 107.535156 132.304688 106.714844 131.132812 C 105.757812 129.777344 104.792969 128.425781 103.820312 127.082031 C 102.730469 125.578125 101.652344 124.066406 100.582031 122.546875 C 99.742188 121.351562 98.890625 120.164062 98.03125 118.980469 C 96.941406 117.476562 95.863281 115.964844 94.796875 114.441406 C 93.953125 113.25 93.101562 112.0625 92.246094 110.878906 C 91.15625 109.375 90.078125 107.859375 89.007812 106.339844 C 88.175781 105.160156 87.335938 103.988281 86.488281 102.820312 C 85.378906 101.292969 84.285156 99.753906 83.203125 98.207031 C 83.066406 98.011719 82.933594 97.820312 82.792969 97.621094 C 82.542969 97.261719 82.292969 96.898438 82.046875 96.535156 C 81.695312 96.019531 81.695312 96.019531 81.140625 95.4375 C 80.09375 93.191406 81.285156 89.246094 81.617188 86.816406 C 81.679688 86.359375 81.742188 85.902344 81.804688 85.449219 C 81.96875 84.21875 82.136719 82.988281 82.304688 81.757812 C 82.480469 80.46875 82.652344 79.179688 82.828125 77.890625 C 83.15625 75.453125 83.488281 73.019531 83.820312 70.582031 C 84.195312 67.808594 84.570312 65.03125 84.949219 62.253906 C 85.71875 56.550781 86.492188 50.84375 87.269531 45.140625 C 87.503906 45.058594 87.738281 44.980469 87.984375 44.902344 C 88.871094 44.605469 89.761719 44.308594 90.652344 44.011719 C 91.035156 43.882812 91.417969 43.757812 91.800781 43.628906 C 94.132812 42.851562 96.46875 42.074219 98.800781 41.292969 C 99.542969 41.042969 100.28125 40.796875 101.023438 40.550781 C 101.503906 40.386719 101.988281 40.226562 102.46875 40.066406 C 105.898438 38.917969 109.335938 37.789062 112.777344 36.671875 C 117.78125 35.046875 122.777344 33.398438 127.773438 31.75 C 130.3125 30.910156 132.855469 30.070312 135.398438 29.230469 C 135.777344 29.105469 135.777344 29.105469 136.164062 28.976562 C 140.628906 27.503906 145.097656 26.03125 149.566406 24.566406 C 150.851562 24.144531 152.140625 23.722656 153.425781 23.296875 C 153.585938 23.246094 153.746094 23.195312 153.910156 23.140625 C 158.183594 21.738281 162.453125 20.332031 166.722656 18.921875 C 167.125 18.792969 167.527344 18.660156 167.925781 18.527344 C 169.738281 17.929688 171.550781 17.335938 173.363281 16.738281 C 177.15625 15.488281 180.949219 14.238281 184.742188 12.992188 C 185.523438 12.730469 186.308594 12.472656 187.09375 12.214844 C 191.582031 10.738281 196.066406 9.261719 200.554688 7.785156 C 200.984375 7.644531 201.410156 7.503906 201.835938 7.363281 C 203.679688 6.757812 205.519531 6.152344 207.359375 5.546875 C 208.105469 5.300781 208.851562 5.054688 209.597656 4.808594 C 209.941406 4.695312 210.285156 4.582031 210.628906 4.46875 C 210.949219 4.363281 211.269531 4.257812 211.589844 4.152344 C 212.023438 4.011719 212.460938 3.867188 212.894531 3.726562 C 213.371094 3.566406 213.84375 3.40625 214.3125 3.238281 C 215.671875 2.753906 215.671875 2.753906 216.433594 3.007812 Z M 216.433594 3.007812 "/>
<path style=" stroke:none;fill-rule:nonzero;fill:rgb(26.274511%,73.333335%,82.352942%);fill-opacity:1;" d="M 80.554688 167.128906 C 81.257812 167.078125 81.9375 167.046875 82.640625 167.128906 C 83.117188 167.5625 83.117188 167.5625 83.332031 168.054688 C 83.332031 168.207031 83.332031 168.359375 83.332031 168.519531 C 83.476562 168.550781 83.621094 168.585938 83.765625 168.621094 C 84.257812 168.75 84.257812 168.75 84.722656 168.980469 C 84.722656 169.132812 84.722656 169.285156 84.722656 169.445312 C 84.910156 169.480469 84.910156 169.480469 85.097656 169.515625 C 85.792969 169.71875 86.398438 170.035156 87.035156 170.371094 C 87.035156 170.523438 87.035156 170.675781 87.035156 170.832031 C 87.191406 170.832031 87.34375 170.832031 87.5 170.832031 C 87.5 170.984375 87.5 171.140625 87.5 171.296875 C 87.652344 171.296875 87.804688 171.296875 87.964844 171.296875 C 87.964844 171.449219 87.964844 171.601562 87.964844 171.757812 C 88.117188 171.757812 88.269531 171.757812 88.425781 171.757812 C 88.800781 172.078125 88.800781 172.078125 89.121094 172.453125 C 89.121094 172.605469 89.121094 172.757812 89.121094 172.917969 C 89.371094 173.007812 89.371094 173.007812 89.628906 173.105469 C 90.269531 173.375 90.8125 173.691406 91.390625 174.074219 C 91.574219 174.195312 91.757812 174.3125 91.945312 174.4375 C 92.152344 174.601562 92.152344 174.601562 92.359375 174.769531 C 92.359375 174.921875 92.359375 175.074219 92.359375 175.230469 C 92.515625 175.230469 92.667969 175.230469 92.824219 175.230469 C 92.824219 175.382812 92.824219 175.535156 92.824219 175.695312 C 92.976562 175.695312 93.128906 175.695312 93.285156 175.695312 C 93.285156 175.847656 93.285156 176 93.285156 176.15625 C 93.457031 176.222656 93.628906 176.292969 93.808594 176.359375 C 94.34375 176.578125 94.855469 176.816406 95.371094 177.082031 C 95.371094 177.234375 95.371094 177.390625 95.371094 177.546875 C 95.597656 177.546875 95.828125 177.546875 96.066406 177.546875 C 96.066406 177.699219 96.066406 177.851562 96.066406 178.007812 C 96.371094 178.007812 96.675781 178.007812 96.992188 178.007812 C 97.066406 178.316406 97.144531 178.621094 97.222656 178.933594 C 97.453125 178.933594 97.679688 178.933594 97.917969 178.933594 C 97.917969 179.089844 97.917969 179.242188 97.917969 179.398438 C 98.070312 179.398438 98.222656 179.398438 98.378906 179.398438 C 98.378906 179.550781 98.378906 179.703125 98.378906 179.859375 C 98.53125 179.859375 98.683594 179.859375 98.84375 179.859375 C 98.84375 180.015625 98.84375 180.167969 98.84375 180.324219 C 99.148438 180.324219 99.453125 180.324219 99.769531 180.324219 C 99.769531 180.476562 99.769531 180.628906 99.769531 180.785156 C 99.996094 180.785156 100.226562 180.785156 100.464844 180.785156 C 100.464844 180.941406 100.464844 181.09375 100.464844 181.25 C 100.617188 181.25 100.769531 181.25 100.925781 181.25 C 100.925781 181.402344 100.925781 181.554688 100.925781 181.714844 C 101.15625 181.789062 101.382812 181.867188 101.621094 181.945312 C 101.773438 182.019531 101.925781 182.097656 102.082031 182.175781 C 102.082031 182.328125 102.082031 182.480469 102.082031 182.640625 C 102.234375 182.640625 102.390625 182.640625 102.546875 182.640625 C 102.546875 182.792969 102.546875 182.945312 102.546875 183.101562 C 102.777344 183.101562 103.003906 183.101562 103.242188 183.101562 C 103.242188 183.253906 103.242188 183.40625 103.242188 183.566406 C 103.46875 183.566406 103.699219 183.566406 103.933594 183.566406 C 103.933594 183.71875 103.933594 183.871094 103.933594 184.027344 C 104.164062 184.027344 104.394531 184.027344 104.628906 184.027344 C 104.628906 184.179688 104.628906 184.332031 104.628906 184.492188 C 104.859375 184.492188 105.089844 184.492188 105.324219 184.492188 C 105.324219 184.644531 105.324219 184.796875 105.324219 184.953125 C 105.554688 184.953125 105.78125 184.953125 106.019531 184.953125 C 106.480469 185.417969 106.480469 185.417969 106.480469 186.109375 C 106.632812 186.109375 106.785156 186.109375 106.945312 186.109375 C 106.945312 186.265625 106.945312 186.417969 106.945312 186.574219 C 107.402344 186.726562 107.859375 186.878906 108.332031 187.035156 C 108.332031 187.191406 108.332031 187.34375 108.332031 187.5 C 108.46875 187.523438 108.601562 187.546875 108.738281 187.574219 C 109.34375 187.757812 109.714844 188.007812 110.183594 188.425781 C 110.183594 188.578125 110.183594 188.730469 110.183594 188.890625 C 110.339844 188.890625 110.492188 188.890625 110.648438 188.890625 C 110.648438 189.042969 110.648438 189.195312 110.648438 189.351562 C 110.785156 189.417969 110.925781 189.484375 111.066406 189.554688 C 111.574219 189.816406 111.574219 189.816406 112.269531 190.277344 C 112.269531 190.429688 112.269531 190.582031 112.269531 190.742188 C 112.574219 190.816406 112.878906 190.894531 113.195312 190.972656 C 113.160156 191.378906 113.128906 191.78125 113.09375 192.1875 C 113.074219 192.414062 113.054688 192.640625 113.035156 192.871094 C 112.949219 193.65625 112.78125 194.316406 112.5 195.050781 C 112.195312 196.074219 112.117188 197.085938 112.035156 198.148438 C 111.882812 198.148438 111.730469 198.148438 111.574219 198.148438 C 111.582031 198.597656 111.582031 198.597656 111.589844 199.058594 C 111.59375 199.375 111.589844 199.6875 111.574219 200 C 111.496094 200.078125 111.421875 200.152344 111.34375 200.230469 C 111.289062 200.621094 111.246094 201.011719 111.210938 201.402344 C 111.191406 201.617188 111.171875 201.828125 111.152344 202.046875 C 111.140625 202.210938 111.125 202.375 111.109375 202.546875 C 110.957031 202.546875 110.804688 202.546875 110.648438 202.546875 C 110.648438 203.308594 110.648438 204.074219 110.648438 204.859375 C 110.496094 204.859375 110.34375 204.859375 110.183594 204.859375 C 110.183594 205.625 110.183594 206.390625 110.183594 207.175781 C 110.03125 207.175781 109.878906 207.175781 109.722656 207.175781 C 109.722656 207.632812 109.722656 208.09375 109.722656 208.566406 C 109.570312 208.566406 109.417969 208.566406 109.257812 208.566406 C 109.257812 209.632812 109.257812 210.703125 109.257812 211.804688 C 109.105469 211.804688 108.953125 211.804688 108.796875 211.804688 C 108.796875 212.339844 108.796875 212.875 108.796875 213.425781 C 108.644531 213.425781 108.492188 213.425781 108.332031 213.425781 C 108.339844 213.558594 108.34375 213.6875 108.351562 213.824219 C 108.378906 215.027344 108.257812 215.988281 107.871094 217.128906 C 107.71875 217.128906 107.566406 217.128906 107.40625 217.128906 C 107.40625 217.894531 107.40625 218.65625 107.40625 219.445312 C 107.179688 219.445312 106.949219 219.445312 106.714844 219.445312 C 106.714844 219.597656 106.714844 219.75 106.714844 219.90625 C 106.332031 219.90625 105.949219 219.90625 105.554688 219.90625 C 105.554688 220.058594 105.554688 220.214844 105.554688 220.371094 C 105.402344 220.371094 105.25 220.371094 105.09375 220.371094 C 105.09375 220.523438 105.09375 220.675781 105.09375 220.832031 C 104.195312 221.109375 103.492188 221.296875 102.546875 221.296875 C 102.546875 221.449219 102.546875 221.601562 102.546875 221.757812 C 101.800781 222.257812 101.554688 222.269531 100.695312 222.222656 C 100.695312 222.375 100.695312 222.527344 100.695312 222.683594 C 100.390625 222.683594 100.082031 222.683594 99.769531 222.683594 C 99.769531 222.839844 99.769531 222.992188 99.769531 223.148438 C 99.308594 223.148438 98.851562 223.148438 98.378906 223.148438 C 98.378906 223.300781 98.378906 223.453125 98.378906 223.609375 C 98.226562 223.609375 98.074219 223.609375 97.917969 223.609375 C 97.917969 223.765625 97.917969 223.917969 97.917969 224.074219 C 97.769531 224.132812 97.621094 224.191406 97.46875 224.253906 C 96.84375 224.5 96.222656 224.75 95.601562 225 C 95.433594 225.066406 95.269531 225.132812 95.09375 225.199219 C 94.265625 225.492188 94.265625 225.492188 93.75 226.15625 C 92.949219 226.558594 92.324219 226.671875 91.433594 226.621094 C 91.433594 226.773438 91.433594 226.925781 91.433594 227.082031 C 91.207031 227.082031 90.976562 227.082031 90.742188 227.082031 C 90.742188 227.234375 90.742188 227.390625 90.742188 227.546875 C 90.359375 227.546875 89.976562 227.546875 89.582031 227.546875 C 89.582031 227.699219 89.582031 227.851562 89.582031 228.007812 C 89.355469 228.007812 89.125 228.007812 88.890625 228.007812 C 88.890625 228.160156 88.890625 228.316406 88.890625 228.472656 C 88.355469 228.472656 87.820312 228.472656 87.269531 228.472656 C 87.269531 228.625 87.269531 228.777344 87.269531 228.933594 C 87.039062 228.933594 86.808594 228.933594 86.574219 228.933594 C 86.574219 229.089844 86.574219 229.242188 86.574219 229.398438 C 85.785156 229.882812 85.171875 229.902344 84.257812 229.859375 C 84.257812 230.015625 84.257812 230.167969 84.257812 230.324219 C 83.953125 230.324219 83.648438 230.324219 83.332031 230.324219 C 83.332031 230.476562 83.332031 230.628906 83.332031 230.785156 C 83.179688 230.941406 83.027344 231.09375 82.871094 231.25 C 82.566406 231.25 82.257812 231.25 81.945312 231.25 C 81.945312 231.402344 81.945312 231.554688 81.945312 231.714844 C 81.484375 231.714844 81.027344 231.714844 80.554688 231.714844 C 80.554688 231.867188 80.554688 232.019531 80.554688 232.175781 C 80.097656 232.175781 79.640625 232.175781 79.167969 232.175781 C 79.167969 232.328125 79.167969 232.480469 79.167969 232.640625 C 79.015625 232.640625 78.859375 232.640625 78.703125 232.640625 C 78.703125 232.792969 78.703125 232.945312 78.703125 233.101562 C 78.398438 233.101562 78.09375 233.101562 77.777344 233.101562 C 77.777344 233.253906 77.777344 233.40625 77.777344 233.566406 C 77.242188 233.566406 76.707031 233.566406 76.15625 233.566406 C 76.15625 233.71875 76.15625 233.871094 76.15625 234.027344 C 75.929688 234.027344 75.699219 234.027344 75.464844 234.027344 C 75.464844 234.179688 75.464844 234.332031 75.464844 234.492188 C 75.078125 234.65625 74.695312 234.820312 74.308594 234.984375 C 74.003906 235.117188 73.699219 235.25 73.398438 235.386719 C 72.730469 235.683594 72.265625 235.878906 71.527344 235.878906 C 71.527344 236.03125 71.527344 236.183594 71.527344 236.34375 C 70.832031 236.804688 70.832031 236.804688 70.125 236.992188 C 69.183594 237.246094 68.371094 237.675781 67.507812 238.125 C 66.703125 238.523438 65.875 238.835938 65.03125 239.144531 C 64.542969 239.316406 64.542969 239.316406 64.351562 239.816406 C 64.046875 239.816406 63.742188 239.816406 63.425781 239.816406 C 63.425781 239.96875 63.425781 240.121094 63.425781 240.277344 C 62.621094 240.816406 62.0625 240.855469 61.109375 240.972656 C 60.800781 241.042969 60.492188 241.117188 60.183594 241.203125 C 60.183594 241.355469 60.183594 241.507812 60.183594 241.667969 C 59.4375 242.164062 59.195312 242.175781 58.332031 242.128906 C 58.332031 242.28125 58.332031 242.433594 58.332031 242.59375 C 57.953125 242.59375 57.570312 242.59375 57.175781 242.59375 C 57.175781 242.746094 57.175781 242.898438 57.175781 243.054688 C 56.945312 243.054688 56.71875 243.054688 56.480469 243.054688 C 56.480469 243.207031 56.480469 243.359375 56.480469 243.519531 C 56.328125 243.519531 56.175781 243.519531 56.019531 243.519531 C 56.019531 243.671875 56.019531 243.824219 56.019531 243.980469 C 55.484375 244.058594 54.949219 244.132812 54.398438 244.214844 C 54.398438 244.289062 54.398438 244.367188 54.398438 244.445312 C 54.015625 244.445312 53.632812 244.445312 53.242188 244.445312 C 53.242188 244.597656 53.242188 244.75 53.242188 244.90625 C 52.933594 244.90625 52.628906 244.90625 52.316406 244.90625 C 52.316406 245.058594 52.316406 245.214844 52.316406 245.371094 C 51.808594 245.777344 51.808594 245.777344 51.15625 246.066406 C 50.507812 245.875 50.507812 245.875 50 245.601562 C 50 245.371094 50 245.144531 50 244.90625 C 50.152344 244.90625 50.304688 244.90625 50.464844 244.90625 C 50.464844 244.753906 50.464844 244.601562 50.464844 244.445312 C 50.617188 244.445312 50.769531 244.445312 50.925781 244.445312 C 51.003906 244.140625 51.078125 243.832031 51.15625 243.519531 C 51.308594 243.519531 51.464844 243.519531 51.621094 243.519531 C 51.621094 243.367188 51.621094 243.214844 51.621094 243.054688 C 51.773438 243.054688 51.925781 243.054688 52.082031 243.054688 C 52.332031 242.589844 52.535156 242.191406 52.632812 241.667969 C 52.832031 241.03125 53.222656 240.726562 53.703125 240.277344 C 53.78125 240.125 53.855469 239.972656 53.933594 239.816406 C 54.089844 239.816406 54.242188 239.816406 54.398438 239.816406 C 54.398438 239.660156 54.398438 239.507812 54.398438 239.351562 C 54.550781 239.351562 54.703125 239.351562 54.859375 239.351562 C 54.894531 239.171875 54.929688 238.988281 54.960938 238.800781 C 55.09375 238.195312 55.09375 238.195312 55.324219 237.730469 C 55.476562 237.730469 55.628906 237.730469 55.785156 237.730469 C 55.785156 237.578125 55.785156 237.425781 55.785156 237.269531 C 55.941406 237.269531 56.09375 237.269531 56.25 237.269531 C 56.25 237.117188 56.25 236.964844 56.25 236.804688 C 56.402344 236.804688 56.554688 236.804688 56.714844 236.804688 C 56.867188 236.347656 57.019531 235.890625 57.175781 235.417969 C 57.328125 235.417969 57.480469 235.417969 57.640625 235.417969 C 57.640625 235.265625 57.640625 235.109375 57.640625 234.953125 C 57.792969 234.953125 57.945312 234.953125 58.101562 234.953125 C 58.101562 234.800781 58.101562 234.648438 58.101562 234.492188 C 58.253906 234.492188 58.40625 234.492188 58.566406 234.492188 C 58.566406 234.183594 58.566406 233.878906 58.566406 233.566406 C 58.71875 233.566406 58.871094 233.566406 59.027344 233.566406 C 59.027344 233.410156 59.027344 233.257812 59.027344 233.101562 C 59.179688 233.101562 59.332031 233.101562 59.492188 233.101562 C 59.644531 232.644531 59.796875 232.183594 59.953125 231.714844 C 60.105469 231.714844 60.257812 231.714844 60.417969 231.714844 C 60.417969 231.40625 60.417969 231.101562 60.417969 230.785156 C 60.570312 230.785156 60.722656 230.785156 60.878906 230.785156 C 60.878906 230.632812 60.878906 230.480469 60.878906 230.324219 C 61.03125 230.324219 61.183594 230.324219 61.34375 230.324219 C 61.34375 230.171875 61.34375 230.019531 61.34375 229.859375 C 61.496094 229.859375 61.648438 229.859375 61.804688 229.859375 C 61.804688 229.707031 61.804688 229.554688 61.804688 229.398438 C 61.957031 229.398438 62.109375 229.398438 62.269531 229.398438 C 62.34375 229.015625 62.421875 228.632812 62.5 228.242188 C 62.730469 228.164062 62.957031 228.089844 63.195312 228.007812 C 63.195312 227.855469 63.195312 227.703125 63.195312 227.546875 C 63.347656 227.546875 63.5 227.546875 63.65625 227.546875 C 63.6875 227.402344 63.714844 227.261719 63.746094 227.113281 C 63.890625 226.621094 63.890625 226.621094 64.351562 226.15625 C 64.515625 225.777344 64.671875 225.390625 64.816406 225 C 65.042969 225 65.273438 225 65.507812 225 C 65.738281 224.3125 65.738281 224.3125 65.972656 223.609375 C 66.125 223.609375 66.277344 223.609375 66.433594 223.609375 C 66.433594 223.304688 66.433594 223 66.433594 222.683594 C 66.589844 222.683594 66.742188 222.683594 66.898438 222.683594 C 66.898438 222.53125 66.898438 222.378906 66.898438 222.222656 C 67.050781 222.222656 67.203125 222.222656 67.359375 222.222656 C 67.359375 222.070312 67.359375 221.917969 67.359375 221.757812 C 67.515625 221.757812 67.667969 221.757812 67.824219 221.757812 C 67.902344 221.453125 67.976562 221.148438 68.054688 220.832031 C 68.207031 220.832031 68.359375 220.832031 68.519531 220.832031 C 68.746094 220.144531 68.746094 220.144531 68.980469 219.445312 C 69.132812 219.445312 69.285156 219.445312 69.445312 219.445312 C 69.445312 219.292969 69.445312 219.140625 69.445312 218.980469 C 69.597656 218.980469 69.75 218.980469 69.90625 218.980469 C 70.058594 218.675781 70.214844 218.371094 70.371094 218.054688 C 70.523438 218.054688 70.675781 218.054688 70.832031 218.054688 C 70.832031 217.75 70.832031 217.445312 70.832031 217.128906 C 70.984375 217.128906 71.140625 217.128906 71.296875 217.128906 C 71.296875 216.976562 71.296875 216.824219 71.296875 216.667969 C 71.449219 216.667969 71.601562 216.667969 71.757812 216.667969 C 71.757812 216.515625 71.757812 216.359375 71.757812 216.203125 C 71.910156 216.203125 72.066406 216.203125 72.222656 216.203125 C 72.222656 216.050781 72.222656 215.898438 72.222656 215.742188 C 72.375 215.742188 72.527344 215.742188 72.683594 215.742188 C 72.683594 215.433594 72.683594 215.128906 72.683594 214.816406 C 72.839844 214.816406 72.992188 214.816406 73.148438 214.816406 C 73.234375 214.507812 73.234375 214.507812 73.320312 214.191406 C 73.621094 213.394531 73.957031 212.886719 74.535156 212.269531 C 74.691406 212.269531 74.84375 212.269531 75 212.269531 C 75 211.964844 75 211.65625 75 211.34375 C 75.152344 211.34375 75.304688 211.34375 75.464844 211.34375 C 75.539062 211.035156 75.617188 210.730469 75.695312 210.417969 C 76.609375 210.417969 77.527344 210.417969 78.472656 210.417969 C 78.472656 210.570312 78.472656 210.722656 78.472656 210.878906 C 78.929688 210.878906 79.390625 210.878906 79.859375 210.878906 C 79.859375 210.726562 79.859375 210.574219 79.859375 210.417969 C 80.015625 210.417969 80.167969 210.417969 80.324219 210.417969 C 80.324219 210.570312 80.324219 210.722656 80.324219 210.878906 C 80.476562 210.878906 80.628906 210.878906 80.785156 210.878906 C 80.785156 210.726562 80.785156 210.574219 80.785156 210.417969 C 81.472656 210.417969 82.160156 210.417969 82.871094 210.417969 C 82.871094 210.265625 82.871094 210.109375 82.871094 209.953125 C 83.097656 209.953125 83.328125 209.953125 83.566406 209.953125 C 83.566406 209.800781 83.566406 209.648438 83.566406 209.492188 C 83.871094 209.492188 84.175781 209.492188 84.492188 209.492188 C 84.566406 209.183594 84.644531 208.878906 84.722656 208.566406 C 84.953125 208.566406 85.179688 208.566406 85.417969 208.566406 C 85.417969 208.410156 85.417969 208.257812 85.417969 208.101562 C 85.570312 208.101562 85.722656 208.101562 85.878906 208.101562 C 85.878906 207.949219 85.878906 207.796875 85.878906 207.640625 C 86.03125 207.640625 86.183594 207.640625 86.34375 207.640625 C 86.34375 207.332031 86.34375 207.027344 86.34375 206.714844 C 86.496094 206.714844 86.648438 206.714844 86.804688 206.714844 C 86.804688 206.40625 86.804688 206.101562 86.804688 205.785156 C 86.957031 205.785156 87.109375 205.785156 87.269531 205.785156 C 87.421875 204.105469 87.574219 202.425781 87.730469 200.695312 C 87.578125 200.695312 87.425781 200.695312 87.269531 200.695312 C 87.039062 199.664062 87.039062 199.664062 86.804688 198.609375 C 86.652344 198.609375 86.5 198.609375 86.34375 198.609375 C 86.34375 198.304688 86.34375 198 86.34375 197.683594 C 86.191406 197.683594 86.035156 197.683594 85.878906 197.683594 C 85.386719 197.25 85.386719 197.25 84.953125 196.757812 C 84.953125 196.605469 84.953125 196.453125 84.953125 196.296875 C 84.800781 196.296875 84.648438 196.296875 84.492188 196.296875 C 84.492188 196.144531 84.492188 195.992188 84.492188 195.832031 C 84.328125 195.800781 84.167969 195.773438 84.003906 195.738281 C 83.289062 195.59375 82.582031 195.417969 81.871094 195.238281 C 81.625 195.179688 81.378906 195.117188 81.121094 195.050781 C 80.933594 195.003906 80.75 194.957031 80.554688 194.90625 C 80.554688 194.753906 80.554688 194.601562 80.554688 194.445312 C 79.945312 194.445312 79.332031 194.445312 78.703125 194.445312 C 78.703125 194.597656 78.703125 194.75 78.703125 194.90625 C 78.246094 194.90625 77.785156 194.90625 77.316406 194.90625 C 77.316406 195.058594 77.316406 195.214844 77.316406 195.371094 C 76.855469 195.371094 76.398438 195.371094 75.925781 195.371094 C 75.925781 195.523438 75.925781 195.675781 75.925781 195.832031 C 75.621094 195.832031 75.316406 195.832031 75 195.832031 C 75 195.984375 75 196.140625 75 196.296875 C 74.847656 196.296875 74.695312 196.296875 74.535156 196.296875 C 74.535156 196.527344 74.535156 196.753906 74.535156 196.992188 C 74.351562 197.101562 74.164062 197.210938 73.972656 197.324219 C 73.34375 197.625 73.34375 197.625 73.191406 198.191406 C 73.175781 198.328125 73.164062 198.46875 73.148438 198.609375 C 72.996094 198.609375 72.84375 198.609375 72.683594 198.609375 C 72.53125 199.296875 72.378906 199.984375 72.222656 200.695312 C 72.070312 200.695312 71.917969 200.695312 71.757812 200.695312 C 71.757812 201.765625 71.757812 202.832031 71.757812 203.933594 C 71.910156 203.933594 72.066406 203.933594 72.222656 203.933594 C 72.230469 204.074219 72.238281 204.214844 72.25 204.359375 C 72.335938 205.4375 72.410156 206.109375 73.148438 206.945312 C 73.148438 207.171875 73.148438 207.402344 73.148438 207.640625 C 73.300781 207.640625 73.453125 207.640625 73.609375 207.640625 C 73.609375 207.945312 73.609375 208.25 73.609375 208.566406 C 73.457031 208.566406 73.304688 208.566406 73.148438 208.566406 C 73.148438 208.871094 73.148438 209.175781 73.148438 209.492188 C 72.917969 209.566406 72.691406 209.644531 72.453125 209.722656 C 72.347656 210 72.347656 210 72.238281 210.285156 C 71.941406 211.003906 71.738281 211.027344 71.066406 211.34375 C 70.769531 211.8125 70.769531 211.8125 70.601562 212.269531 C 70.449219 212.269531 70.296875 212.269531 70.140625 212.269531 C 70.105469 212.449219 70.070312 212.632812 70.039062 212.816406 C 69.90625 213.425781 69.90625 213.425781 69.675781 213.890625 C 69.523438 213.890625 69.371094 213.890625 69.214844 213.890625 C 69.214844 214.042969 69.214844 214.195312 69.214844 214.351562 C 69.058594 214.351562 68.90625 214.351562 68.75 214.351562 C 68.75 214.503906 68.75 214.65625 68.75 214.816406 C 68.597656 214.816406 68.445312 214.816406 68.285156 214.816406 C 68.285156 215.121094 68.285156 215.425781 68.285156 215.742188 C 68.132812 215.742188 67.980469 215.742188 67.824219 215.742188 C 67.824219 215.894531 67.824219 216.046875 67.824219 216.203125 C 67.671875 216.203125 67.519531 216.203125 67.359375 216.203125 C 67.359375 216.507812 67.359375 216.816406 67.359375 217.128906 C 67.207031 217.128906 67.054688 217.128906 66.898438 217.128906 C 66.898438 217.28125 66.898438 217.433594 66.898438 217.59375 C 66.746094 217.59375 66.59375 217.59375 66.433594 217.59375 C 66.433594 217.746094 66.433594 217.898438 66.433594 218.054688 C 66.28125 218.054688 66.128906 218.054688 65.972656 218.054688 C 65.972656 218.207031 65.972656 218.359375 65.972656 218.519531 C 65.820312 218.519531 65.667969 218.519531 65.507812 218.519531 C 65.507812 218.824219 65.507812 219.128906 65.507812 219.445312 C 65.355469 219.445312 65.203125 219.445312 65.046875 219.445312 C 65.046875 219.597656 65.046875 219.75 65.046875 219.90625 C 64.894531 219.90625 64.742188 219.90625 64.582031 219.90625 C 64.582031 220.214844 64.582031 220.519531 64.582031 220.832031 C 64.429688 220.832031 64.277344 220.832031 64.121094 220.832031 C 64.121094 220.984375 64.121094 221.140625 64.121094 221.296875 C 63.96875 221.296875 63.816406 221.296875 63.65625 221.296875 C 63.59375 221.515625 63.535156 221.734375 63.46875 221.960938 C 63.195312 222.683594 63.195312 222.683594 62.5 223.148438 C 62.464844 223.296875 62.425781 223.445312 62.390625 223.597656 C 62.234375 224.210938 61.992188 224.355469 61.488281 224.726562 C 60.617188 225.425781 60.308594 226.035156 59.953125 227.082031 C 59.800781 227.082031 59.648438 227.082031 59.492188 227.082031 C 59.492188 227.390625 59.492188 227.695312 59.492188 228.007812 C 59.183594 228.160156 58.878906 228.316406 58.566406 228.472656 C 58.566406 228.625 58.566406 228.777344 58.566406 228.933594 C 58.410156 228.933594 58.257812 228.933594 58.101562 228.933594 C 58.101562 229.242188 58.101562 229.546875 58.101562 229.859375 C 57.871094 229.859375 57.644531 229.859375 57.40625 229.859375 C 57.40625 230.015625 57.40625 230.167969 57.40625 230.324219 C 57.253906 230.324219 57.101562 230.324219 56.945312 230.324219 C 56.867188 230.628906 56.792969 230.933594 56.714844 231.25 C 56.558594 231.25 56.40625 231.25 56.25 231.25 C 56.097656 231.707031 55.945312 232.167969 55.785156 232.640625 C 55.558594 232.640625 55.328125 232.640625 55.09375 232.640625 C 55.09375 232.792969 55.09375 232.945312 55.09375 233.101562 C 54.941406 233.101562 54.785156 233.101562 54.628906 233.101562 C 54.628906 233.40625 54.628906 233.714844 54.628906 234.027344 C 54.476562 234.027344 54.324219 234.027344 54.167969 234.027344 C 54.167969 234.179688 54.167969 234.332031 54.167969 234.492188 C 54.015625 234.492188 53.859375 234.492188 53.703125 234.492188 C 53.667969 234.691406 53.667969 234.691406 53.632812 234.894531 C 53.445312 235.5 53.195312 235.875 52.777344 236.34375 C 52.625 236.34375 52.472656 236.34375 52.316406 236.34375 C 52.257812 236.550781 52.199219 236.761719 52.140625 236.980469 C 51.839844 237.761719 51.570312 238.132812 50.925781 238.65625 C 50.773438 238.65625 50.621094 238.65625 50.464844 238.65625 C 50.414062 238.929688 50.414062 238.929688 50.363281 239.207031 C 50.230469 239.816406 50.230469 239.816406 50 240.277344 C 49.847656 240.277344 49.695312 240.277344 49.535156 240.277344 C 49.5 240.476562 49.5 240.476562 49.464844 240.683594 C 49.28125 241.285156 49.03125 241.660156 48.609375 242.128906 C 48.457031 242.128906 48.304688 242.128906 48.148438 242.128906 C 48.148438 242.28125 48.148438 242.433594 48.148438 242.59375 C 47.996094 242.59375 47.84375 242.59375 47.683594 242.59375 C 47.683594 242.746094 47.683594 242.898438 47.683594 243.054688 C 47.457031 243.054688 47.226562 243.054688 46.992188 243.054688 C 46.984375 242.460938 46.980469 241.871094 46.976562 241.277344 C 46.972656 241.109375 46.972656 240.941406 46.96875 240.769531 C 46.964844 239.878906 47.003906 239.058594 47.222656 238.195312 C 47.375 238.195312 47.527344 238.195312 47.683594 238.195312 C 47.679688 237.871094 47.679688 237.871094 47.675781 237.542969 C 47.675781 237.265625 47.671875 236.988281 47.671875 236.703125 C 47.667969 236.425781 47.664062 236.152344 47.664062 235.867188 C 47.683594 235.183594 47.683594 235.183594 47.917969 234.953125 C 47.972656 234.488281 48.011719 234.019531 48.046875 233.550781 C 48.074219 233.167969 48.074219 233.167969 48.105469 232.777344 C 48.121094 232.578125 48.132812 232.378906 48.148438 232.175781 C 48.300781 232.175781 48.453125 232.175781 48.609375 232.175781 C 48.609375 231.105469 48.609375 230.035156 48.609375 228.933594 C 48.765625 228.933594 48.917969 228.933594 49.074219 228.933594 C 49.074219 228.171875 49.074219 227.40625 49.074219 226.621094 C 49.226562 226.621094 49.378906 226.621094 49.535156 226.621094 C 49.535156 225.320312 49.535156 224.023438 49.535156 222.683594 C 49.691406 222.683594 49.84375 222.683594 50 222.683594 C 50 222.472656 50 222.261719 50 222.042969 C 50 220.867188 50 219.695312 50 218.519531 C 50.152344 218.519531 50.304688 218.519531 50.464844 218.519531 C 50.464844 217.832031 50.464844 217.144531 50.464844 216.433594 C 50.539062 216.433594 50.617188 216.433594 50.695312 216.433594 C 50.769531 215.671875 50.847656 214.90625 50.925781 214.121094 C 51.003906 214.121094 51.078125 214.121094 51.15625 214.121094 C 51.171875 213.871094 51.183594 213.625 51.199219 213.367188 C 51.21875 213.046875 51.238281 212.722656 51.257812 212.398438 C 51.269531 212.234375 51.277344 212.070312 51.285156 211.902344 C 51.363281 210.675781 51.363281 210.675781 51.621094 210.417969 C 51.675781 209.832031 51.71875 209.253906 51.75 208.667969 C 51.761719 208.5 51.769531 208.335938 51.78125 208.167969 C 51.804688 207.761719 51.828125 207.351562 51.851562 206.945312 C 51.929688 206.945312 52.003906 206.945312 52.082031 206.945312 C 52.160156 206.257812 52.234375 205.570312 52.316406 204.859375 C 52.46875 204.859375 52.621094 204.859375 52.777344 204.859375 C 52.777344 203.640625 52.777344 202.417969 52.777344 201.15625 C 52.929688 201.15625 53.082031 201.15625 53.242188 201.15625 C 53.242188 200.089844 53.242188 199.019531 53.242188 197.917969 C 53.394531 197.917969 53.546875 197.917969 53.703125 197.917969 C 53.699219 197.683594 53.699219 197.453125 53.695312 197.214844 C 53.695312 196.917969 53.691406 196.617188 53.6875 196.3125 C 53.6875 196.011719 53.683594 195.714844 53.679688 195.40625 C 53.703125 194.675781 53.703125 194.675781 53.933594 194.445312 C 54 193.929688 54.039062 193.414062 54.078125 192.898438 C 54.171875 192.332031 54.371094 191.945312 54.628906 191.433594 C 54.628906 191.175781 54.628906 190.917969 54.628906 190.652344 C 54.628906 189.816406 54.628906 189.816406 54.851562 189.171875 C 55.117188 188.351562 55.179688 187.632812 55.222656 186.777344 C 55.269531 185.902344 55.324219 185.101562 55.554688 184.257812 C 55.636719 183.800781 55.714844 183.34375 55.785156 182.886719 C 55.925781 182.027344 56.074219 181.175781 56.25 180.324219 C 56.402344 180.324219 56.554688 180.324219 56.714844 180.324219 C 56.714844 180.171875 56.714844 180.019531 56.714844 179.859375 C 57.09375 179.859375 57.476562 179.859375 57.871094 179.859375 C 57.871094 179.707031 57.871094 179.554688 57.871094 179.398438 C 58.097656 179.398438 58.328125 179.398438 58.566406 179.398438 C 58.566406 179.246094 58.566406 179.09375 58.566406 178.933594 C 59.023438 178.933594 59.480469 178.933594 59.953125 178.933594 C 60.03125 178.628906 60.105469 178.324219 60.183594 178.007812 C 60.566406 178.007812 60.949219 178.007812 61.34375 178.007812 C 61.34375 177.855469 61.34375 177.703125 61.34375 177.546875 C 62.058594 177.136719 62.324219 177.082031 63.195312 177.082031 C 63.195312 176.929688 63.195312 176.777344 63.195312 176.621094 C 63.5 176.621094 63.804688 176.621094 64.121094 176.621094 C 64.171875 176.476562 64.226562 176.332031 64.28125 176.1875 C 64.679688 175.539062 65.019531 175.4375 65.742188 175.230469 C 66.046875 175.230469 66.351562 175.230469 66.667969 175.230469 C 66.667969 175.078125 66.667969 174.925781 66.667969 174.769531 C 67.359375 174.535156 67.359375 174.535156 68.054688 174.769531 C 67.980469 174.539062 67.902344 174.308594 67.824219 174.074219 C 68.207031 173.996094 68.589844 173.921875 68.980469 173.84375 C 68.980469 173.691406 68.980469 173.535156 68.980469 173.378906 C 69.441406 173.378906 69.898438 173.378906 70.371094 173.378906 C 70.371094 173.226562 70.371094 173.074219 70.371094 172.917969 C 70.523438 172.917969 70.675781 172.917969 70.832031 172.917969 C 70.832031 172.765625 70.832031 172.609375 70.832031 172.453125 C 71.140625 172.453125 71.445312 172.453125 71.757812 172.453125 C 71.875 172.109375 71.875 172.109375 71.992188 171.757812 C 72.144531 171.757812 72.296875 171.757812 72.453125 171.757812 C 72.453125 171.605469 72.453125 171.453125 72.453125 171.296875 C 73.179688 170.867188 73.699219 170.785156 74.535156 170.832031 C 74.535156 170.679688 74.535156 170.527344 74.535156 170.371094 C 74.996094 170.21875 75.453125 170.066406 75.925781 169.90625 C 75.925781 169.753906 75.925781 169.601562 75.925781 169.445312 C 76.851562 169.136719 77.777344 168.828125 78.703125 168.519531 C 78.703125 168.367188 78.703125 168.214844 78.703125 168.054688 C 79.007812 168.054688 79.316406 168.054688 79.628906 168.054688 C 79.628906 167.902344 79.628906 167.75 79.628906 167.59375 C 79.933594 167.59375 80.242188 167.59375 80.554688 167.59375 C 80.554688 167.441406 80.554688 167.285156 80.554688 167.128906 Z M 80.554688 167.128906 "/>
<path style=" stroke:none;fill-rule:nonzero;fill:rgb(100%,100%,100%);fill-opacity:1;" d="M 27.316406 27.316406 C 44.503906 27.316406 61.691406 27.316406 79.398438 27.316406 C 79.398438 31.132812 79.398438 34.953125 79.398438 38.890625 C 66.03125 38.890625 52.660156 38.890625 38.890625 38.890625 C 38.890625 50.195312 38.890625 61.5 38.890625 73.148438 C 35.070312 73.148438 31.25 73.148438 27.316406 73.148438 C 27.316406 58.023438 27.316406 42.898438 27.316406 27.316406 Z M 27.316406 27.316406 "/>
<path style=" stroke:none;fill-rule:nonzero;fill:rgb(34.117648%,76.078433%,84.313726%);fill-opacity:1;" d="M 89.582031 151.851562 C 90.269531 151.964844 90.269531 151.964844 90.972656 152.082031 C 90.972656 152.234375 90.972656 152.390625 90.972656 152.546875 C 91.125 152.546875 91.277344 152.546875 91.433594 152.546875 C 91.433594 152.699219 91.433594 152.851562 91.433594 153.007812 C 91.589844 153.007812 91.742188 153.007812 91.898438 153.007812 C 91.898438 153.160156 91.898438 153.316406 91.898438 153.472656 C 92.128906 153.472656 92.355469 153.472656 92.59375 153.472656 C 92.59375 153.625 92.59375 153.777344 92.59375 153.933594 C 92.746094 153.933594 92.898438 153.933594 93.054688 153.933594 C 93.054688 154.089844 93.054688 154.242188 93.054688 154.398438 C 93.285156 154.398438 93.515625 154.398438 93.75 154.398438 C 93.75 154.550781 93.75 154.703125 93.75 154.859375 C 93.949219 154.898438 93.949219 154.898438 94.15625 154.933594 C 94.757812 155.117188 95.132812 155.367188 95.601562 155.785156 C 95.601562 155.941406 95.601562 156.09375 95.601562 156.25 C 95.832031 156.25 96.058594 156.25 96.296875 156.25 C 96.296875 156.402344 96.296875 156.554688 96.296875 156.714844 C 96.527344 156.789062 96.753906 156.867188 96.992188 156.945312 C 97.496094 157.277344 97.496094 157.277344 97.917969 157.640625 C 97.917969 157.792969 97.917969 157.945312 97.917969 158.101562 C 98.222656 158.101562 98.527344 158.101562 98.84375 158.101562 C 99.335938 158.550781 99.335938 158.550781 99.769531 159.027344 C 99.921875 159.105469 100.074219 159.179688 100.230469 159.257812 C 100.230469 159.410156 100.230469 159.566406 100.230469 159.722656 C 100.535156 159.875 100.84375 160.027344 101.15625 160.183594 C 101.15625 160.339844 101.15625 160.492188 101.15625 160.648438 C 101.539062 160.800781 101.921875 160.953125 102.316406 161.109375 C 102.316406 161.265625 102.316406 161.417969 102.316406 161.574219 C 102.453125 161.609375 102.589844 161.640625 102.734375 161.675781 C 103.140625 161.78125 103.539062 161.90625 103.933594 162.035156 C 103.933594 162.191406 103.933594 162.34375 103.933594 162.5 C 104.089844 162.5 104.242188 162.5 104.398438 162.5 C 104.398438 162.652344 104.398438 162.804688 104.398438 162.964844 C 104.550781 162.964844 104.703125 162.964844 104.859375 162.964844 C 104.859375 163.117188 104.859375 163.269531 104.859375 163.425781 C 105.242188 163.578125 105.625 163.730469 106.019531 163.890625 C 106.019531 164.042969 106.019531 164.195312 106.019531 164.351562 C 106.171875 164.351562 106.324219 164.351562 106.480469 164.351562 C 106.480469 164.503906 106.480469 164.65625 106.480469 164.816406 C 106.710938 164.816406 106.941406 164.816406 107.175781 164.816406 C 107.175781 164.96875 107.175781 165.121094 107.175781 165.277344 C 107.3125 165.3125 107.453125 165.34375 107.59375 165.378906 C 108 165.484375 108.398438 165.609375 108.796875 165.742188 C 108.796875 165.894531 108.796875 166.046875 108.796875 166.203125 C 109.027344 166.203125 109.253906 166.203125 109.492188 166.203125 C 109.492188 166.355469 109.492188 166.507812 109.492188 166.667969 C 109.644531 166.667969 109.796875 166.667969 109.953125 166.667969 C 109.953125 166.820312 109.953125 166.972656 109.953125 167.128906 C 110.183594 167.128906 110.410156 167.128906 110.648438 167.128906 C 110.648438 167.28125 110.648438 167.433594 110.648438 167.59375 C 110.800781 167.59375 110.953125 167.59375 111.109375 167.59375 C 111.109375 167.746094 111.109375 167.898438 111.109375 168.054688 C 111.453125 168.171875 111.453125 168.171875 111.804688 168.285156 C 112.148438 168.402344 112.148438 168.402344 112.5 168.519531 C 112.5 168.671875 112.5 168.824219 112.5 168.980469 C 112.652344 168.980469 112.804688 168.980469 112.964844 168.980469 C 112.964844 169.132812 112.964844 169.285156 112.964844 169.445312 C 113.308594 169.558594 113.308594 169.558594 113.65625 169.675781 C 114.28125 170.007812 114.28125 170.007812 114.816406 170.371094 C 114.816406 170.523438 114.816406 170.675781 114.816406 170.832031 C 114.96875 170.832031 115.121094 170.832031 115.277344 170.832031 C 115.277344 170.984375 115.277344 171.140625 115.277344 171.296875 C 115.429688 171.296875 115.582031 171.296875 115.742188 171.296875 C 115.742188 171.449219 115.742188 171.601562 115.742188 171.757812 C 115.90625 171.820312 116.074219 171.882812 116.246094 171.949219 C 116.898438 172.222656 117.472656 172.515625 118.054688 172.917969 C 118.054688 173.070312 118.054688 173.222656 118.054688 173.378906 C 118.4375 173.53125 118.820312 173.683594 119.214844 173.84375 C 119.214844 173.996094 119.214844 174.148438 119.214844 174.304688 C 119.347656 174.371094 119.480469 174.4375 119.617188 174.507812 C 120.101562 174.75 120.582031 174.992188 121.066406 175.230469 C 121.066406 175.382812 121.066406 175.535156 121.066406 175.695312 C 121.292969 175.695312 121.523438 175.695312 121.757812 175.695312 C 121.757812 175.847656 121.757812 176 121.757812 176.15625 C 121.898438 176.222656 122.035156 176.292969 122.179688 176.359375 C 122.683594 176.621094 122.683594 176.621094 123.378906 177.082031 C 123.378906 177.234375 123.378906 177.390625 123.378906 177.546875 C 123.609375 177.546875 123.839844 177.546875 124.074219 177.546875 C 124.074219 177.699219 124.074219 177.851562 124.074219 178.007812 C 124.304688 178.007812 124.53125 178.007812 124.769531 178.007812 C 124.84375 178.46875 124.921875 178.925781 125 179.398438 C 124.769531 179.398438 124.542969 179.398438 124.304688 179.398438 C 124.304688 179.550781 124.304688 179.703125 124.304688 179.859375 C 124.152344 179.859375 124 179.859375 123.84375 179.859375 C 123.84375 180.015625 123.84375 180.167969 123.84375 180.324219 C 123.691406 180.324219 123.535156 180.324219 123.378906 180.324219 C 123.378906 180.476562 123.378906 180.628906 123.378906 180.785156 C 123.152344 180.785156 122.921875 180.785156 122.683594 180.785156 C 122.671875 180.925781 122.65625 181.0625 122.640625 181.207031 C 122.378906 181.917969 121.945312 182.019531 121.296875 182.40625 C 121.058594 182.671875 120.824219 182.941406 120.601562 183.21875 C 120.042969 183.902344 119.515625 184.273438 118.75 184.722656 C 118.535156 184.960938 118.328125 185.207031 118.128906 185.460938 C 117.863281 185.78125 117.863281 185.78125 117.59375 186.109375 C 117.441406 186.109375 117.285156 186.109375 117.128906 186.109375 C 117.128906 186.265625 117.128906 186.417969 117.128906 186.574219 C 116.902344 186.574219 116.671875 186.574219 116.433594 186.574219 C 116.433594 186.726562 116.433594 186.878906 116.433594 187.035156 C 116.207031 187.035156 115.976562 187.035156 115.742188 187.035156 C 115.742188 187.34375 115.742188 187.648438 115.742188 187.964844 C 115.359375 187.964844 114.976562 187.964844 114.582031 187.964844 C 114.582031 187.808594 114.582031 187.65625 114.582031 187.5 C 114.355469 187.421875 114.125 187.347656 113.890625 187.269531 C 113.734375 187.191406 113.582031 187.117188 113.425781 187.035156 C 113.425781 186.882812 113.425781 186.730469 113.425781 186.574219 C 113.195312 186.496094 112.96875 186.421875 112.730469 186.34375 C 112.5 186.109375 112.269531 185.878906 112.035156 185.648438 C 111.871094 185.550781 111.703125 185.457031 111.53125 185.359375 C 110.757812 184.878906 110.128906 184.300781 109.460938 183.6875 C 109.019531 183.285156 109.019531 183.285156 108.332031 183.101562 C 108.332031 182.949219 108.332031 182.796875 108.332031 182.640625 C 108.140625 182.601562 108.140625 182.601562 107.941406 182.566406 C 107.296875 182.375 106.800781 182.097656 106.25 181.714844 C 106.25 181.558594 106.25 181.40625 106.25 181.25 C 106.019531 181.25 105.792969 181.25 105.554688 181.25 C 105.050781 180.816406 105.050781 180.816406 104.628906 180.324219 C 104.628906 180.171875 104.628906 180.019531 104.628906 179.859375 C 104.476562 179.859375 104.324219 179.859375 104.167969 179.859375 C 104.167969 179.707031 104.167969 179.554688 104.167969 179.398438 C 103.9375 179.398438 103.707031 179.398438 103.472656 179.398438 C 103.472656 179.246094 103.472656 179.09375 103.472656 178.933594 C 103.242188 178.933594 103.015625 178.933594 102.777344 178.933594 C 102.777344 178.78125 102.777344 178.628906 102.777344 178.472656 C 102.546875 178.472656 102.320312 178.472656 102.082031 178.472656 C 102.082031 178.320312 102.082031 178.167969 102.082031 178.007812 C 101.929688 178.007812 101.777344 178.007812 101.621094 178.007812 C 101.621094 177.855469 101.621094 177.703125 101.621094 177.546875 C 101.390625 177.546875 101.160156 177.546875 100.925781 177.546875 C 100.925781 177.394531 100.925781 177.242188 100.925781 177.082031 C 100.773438 177.082031 100.621094 177.082031 100.464844 177.082031 C 100.464844 176.929688 100.464844 176.777344 100.464844 176.621094 C 100.308594 176.621094 100.15625 176.621094 100 176.621094 C 100 176.46875 100 176.316406 100 176.15625 C 99.792969 176.105469 99.792969 176.105469 99.582031 176.054688 C 99.175781 175.953125 98.777344 175.828125 98.378906 175.695312 C 98.378906 175.542969 98.378906 175.390625 98.378906 175.230469 C 98.152344 175.230469 97.921875 175.230469 97.683594 175.230469 C 97.683594 175.078125 97.683594 174.925781 97.683594 174.769531 C 97.457031 174.769531 97.226562 174.769531 96.992188 174.769531 C 96.992188 174.617188 96.992188 174.464844 96.992188 174.304688 C 96.761719 174.230469 96.53125 174.152344 96.296875 174.074219 C 95.789062 173.742188 95.789062 173.742188 95.371094 173.378906 C 95.371094 173.226562 95.371094 173.074219 95.371094 172.917969 C 95.140625 172.839844 94.910156 172.765625 94.675781 172.683594 C 94.347656 172.46875 94.023438 172.242188 93.707031 172.003906 C 93.539062 171.882812 93.375 171.761719 93.203125 171.636719 C 93.078125 171.523438 92.953125 171.414062 92.824219 171.296875 C 92.824219 171.144531 92.824219 170.992188 92.824219 170.832031 C 92.65625 170.777344 92.488281 170.71875 92.316406 170.660156 C 91.601562 170.34375 91.085938 169.972656 90.507812 169.445312 C 90.507812 169.292969 90.507812 169.140625 90.507812 168.980469 C 90.355469 168.980469 90.203125 168.980469 90.046875 168.980469 C 90.046875 168.828125 90.046875 168.675781 90.046875 168.519531 C 89.878906 168.496094 89.710938 168.472656 89.539062 168.445312 C 88.824219 168.269531 88.328125 168.019531 87.730469 167.59375 C 87.730469 167.441406 87.730469 167.285156 87.730469 167.128906 C 87.578125 167.128906 87.425781 167.128906 87.269531 167.128906 C 87.269531 166.976562 87.269531 166.824219 87.269531 166.667969 C 87.117188 166.667969 86.964844 166.667969 86.804688 166.667969 C 86.804688 166.515625 86.804688 166.359375 86.804688 166.203125 C 86.578125 166.203125 86.347656 166.203125 86.109375 166.203125 C 86.109375 166.050781 86.109375 165.898438 86.109375 165.742188 C 85.882812 165.742188 85.652344 165.742188 85.417969 165.742188 C 85.417969 165.589844 85.417969 165.433594 85.417969 165.277344 C 85.1875 165.277344 84.957031 165.277344 84.722656 165.277344 C 84.722656 165.125 84.722656 164.972656 84.722656 164.816406 C 84.570312 164.816406 84.417969 164.816406 84.257812 164.816406 C 84.257812 164.128906 84.257812 163.441406 84.257812 162.730469 C 84.601562 162.617188 84.601562 162.617188 84.953125 162.5 C 84.902344 162.324219 84.847656 162.148438 84.792969 161.964844 C 84.769531 161.757812 84.746094 161.554688 84.722656 161.34375 C 85.039062 160.980469 85.039062 160.980469 85.417969 160.648438 C 85.5 160.339844 85.574219 160.03125 85.648438 159.722656 C 85.878906 159.609375 85.878906 159.609375 86.109375 159.492188 C 86.320312 158.949219 86.320312 158.949219 86.488281 158.320312 C 86.546875 158.105469 86.609375 157.894531 86.671875 157.675781 C 86.714844 157.507812 86.757812 157.34375 86.804688 157.175781 C 86.957031 157.175781 87.109375 157.175781 87.269531 157.175781 C 87.421875 156.566406 87.574219 155.953125 87.730469 155.324219 C 87.882812 155.324219 88.035156 155.324219 88.195312 155.324219 C 88.195312 155.171875 88.195312 155.019531 88.195312 154.859375 C 88.347656 154.859375 88.5 154.859375 88.65625 154.859375 C 88.691406 154.652344 88.722656 154.441406 88.757812 154.222656 C 88.859375 153.652344 88.96875 153.105469 89.121094 152.546875 C 89.273438 152.546875 89.425781 152.546875 89.582031 152.546875 C 89.582031 152.316406 89.582031 152.089844 89.582031 151.851562 Z M 89.582031 151.851562 "/>
<path style=" stroke:none;fill-rule:nonzero;fill:rgb(100%,100%,100%);fill-opacity:1;" d="M 210.878906 196.527344 C 214.699219 196.527344 218.519531 196.527344 222.453125 196.527344 C 222.453125 205.082031 222.453125 213.640625 222.453125 222.453125 C 211.835938 222.453125 201.21875 222.453125 190.277344 222.453125 C 190.277344 218.632812 190.277344 214.816406 190.277344 210.878906 C 197.078125 210.878906 203.875 210.878906 210.878906 210.878906 C 210.878906 206.144531 210.878906 201.40625 210.878906 196.527344 Z M 210.878906 196.527344 "/>
<path style=" stroke:none;fill-rule:nonzero;fill:rgb(100%,100%,100%);fill-opacity:1;" d="M 27.316406 165.507812 C 31.132812 165.507812 34.953125 165.507812 38.890625 165.507812 C 38.890625 180.863281 38.890625 196.21875 38.890625 212.035156 C 35.070312 212.035156 31.25 212.035156 27.316406 212.035156 C 27.316406 196.683594 27.316406 181.328125 27.316406 165.507812 Z M 27.316406 165.507812 "/>
<path style=" stroke:none;fill-rule:nonzero;fill:rgb(100%,100%,100%);fill-opacity:1;" d="M 210.878906 127.082031 C 214.699219 127.082031 218.519531 127.082031 222.453125 127.082031 C 222.453125 142.4375 222.453125 157.792969 222.453125 173.609375 C 218.632812 173.609375 214.816406 173.609375 210.878906 173.609375 C 210.878906 158.257812 210.878906 142.902344 210.878906 127.082031 Z M 210.878906 127.082031 "/>
<path style=" stroke:none;fill-rule:nonzero;fill:rgb(100%,100%,100%);fill-opacity:1;" d="M 27.316406 96.066406 C 31.132812 96.066406 34.953125 96.066406 38.890625 96.066406 C 38.890625 111.417969 38.890625 126.773438 38.890625 142.59375 C 35.070312 142.59375 31.25 142.59375 27.316406 142.59375 C 27.316406 127.238281 27.316406 111.882812 27.316406 96.066406 Z M 27.316406 96.066406 "/>
<path style=" stroke:none;fill-rule:nonzero;fill:rgb(100%,100%,100%);fill-opacity:1;" d="M 210.878906 57.640625 C 214.699219 57.640625 218.519531 57.640625 222.453125 57.640625 C 222.453125 72.992188 222.453125 88.347656 222.453125 104.167969 C 218.632812 104.167969 214.816406 104.167969 210.878906 104.167969 C 210.878906 88.8125 210.878906 73.457031 210.878906 57.640625 Z M 210.878906 57.640625 "/>
<path style=" stroke:none;fill-rule:nonzero;fill:rgb(100%,100%,100%);fill-opacity:1;" d="M 135.347656 210.851562 C 135.628906 210.851562 135.910156 210.851562 136.199219 210.851562 C 136.515625 210.851562 136.828125 210.851562 137.140625 210.851562 C 137.46875 210.851562 137.796875 210.851562 138.125 210.851562 C 139.019531 210.851562 139.914062 210.855469 140.804688 210.855469 C 141.738281 210.859375 142.671875 210.859375 143.605469 210.859375 C 145.371094 210.859375 147.140625 210.859375 148.90625 210.863281 C 150.917969 210.867188 152.929688 210.867188 154.941406 210.867188 C 159.082031 210.871094 163.222656 210.875 167.359375 210.878906 C 167.359375 214.699219 167.359375 218.519531 167.359375 222.453125 C 152.007812 222.453125 136.652344 222.453125 120.832031 222.453125 C 120.832031 220.695312 120.832031 218.941406 120.832031 217.128906 C 124.875 215.167969 128.933594 213.246094 133.015625 211.367188 C 133.890625 210.960938 134.371094 210.851562 135.347656 210.851562 Z M 135.347656 210.851562 "/>
<path style=" stroke:none;fill-rule:nonzero;fill:rgb(100%,100%,100%);fill-opacity:1;" d="M 193.285156 27.132812 C 193.605469 27.132812 193.921875 27.132812 194.242188 27.128906 C 195.105469 27.128906 195.964844 27.140625 196.824219 27.152344 C 197.726562 27.160156 198.628906 27.160156 199.53125 27.164062 C 201.238281 27.167969 202.941406 27.183594 204.648438 27.199219 C 206.589844 27.214844 208.53125 27.226562 210.472656 27.234375 C 214.46875 27.25 218.460938 27.28125 222.453125 27.316406 C 222.453125 29.757812 222.453125 32.203125 222.453125 34.722656 C 220.542969 34.722656 218.632812 34.722656 216.667969 34.722656 C 216.667969 36.097656 216.667969 37.472656 216.667969 38.890625 C 202.6875 38.890625 188.707031 38.890625 174.304688 38.890625 C 174.90625 38.285156 175.363281 37.835938 176.035156 37.371094 C 176.1875 37.265625 176.34375 37.15625 176.5 37.046875 C 176.664062 36.933594 176.828125 36.820312 176.996094 36.703125 C 177.351562 36.457031 177.707031 36.207031 178.0625 35.957031 C 178.246094 35.832031 178.429688 35.703125 178.617188 35.570312 C 179.492188 34.957031 180.355469 34.335938 181.222656 33.710938 C 181.390625 33.585938 181.5625 33.464844 181.738281 33.335938 C 183.222656 32.257812 184.703125 31.171875 186.175781 30.078125 C 186.507812 29.832031 186.84375 29.585938 187.179688 29.34375 C 187.535156 29.078125 187.886719 28.800781 188.226562 28.511719 C 189.871094 27.1875 191.214844 27.089844 193.285156 27.132812 Z M 193.285156 27.132812 "/>
<path style=" stroke:none;fill-rule:nonzero;fill:rgb(100%,100%,100%);fill-opacity:1;" d="M 102.546875 27.316406 C 110.871094 27.316406 119.199219 27.316406 127.777344 27.316406 C 127.019531 27.820312 126.273438 28.074219 125.417969 28.351562 C 125.25 28.410156 125.078125 28.464844 124.90625 28.523438 C 124.34375 28.707031 123.78125 28.890625 123.21875 29.074219 C 122.824219 29.203125 122.429688 29.335938 122.035156 29.464844 C 120.988281 29.808594 119.941406 30.148438 118.894531 30.492188 C 118.058594 30.765625 117.222656 31.039062 116.386719 31.3125 C 113.859375 32.144531 111.328125 32.972656 108.796875 33.796875 C 108.550781 33.875 108.550781 33.875 108.300781 33.957031 C 107.316406 34.277344 106.328125 34.597656 105.339844 34.914062 C 105.105469 34.992188 104.867188 35.070312 104.625 35.148438 C 104.414062 35.214844 104.203125 35.28125 103.988281 35.351562 C 103.808594 35.410156 103.628906 35.46875 103.441406 35.527344 C 103.007812 35.648438 103.007812 35.648438 102.546875 35.648438 C 102.546875 32.898438 102.546875 30.148438 102.546875 27.316406 Z M 102.546875 27.316406 "/>
</g>
</svg>
