<?xml version="1.0" encoding="UTF-8"?>
<svg version="1.1" xmlns="http://www.w3.org/2000/svg" width="1080" height="1080">
<path d="M0 0 C-9.38995423 7.34938113 -18.98533974 14.38131885 -28.67382812 21.33105469 C-32.43237273 24.02767632 -36.1858976 26.73123064 -39.9375 29.4375 C-40.67701904 29.97093018 -41.41653809 30.50436035 -42.1784668 31.05395508 C-48.44776622 35.58438418 -54.67360373 40.17243869 -60.89428711 44.76928711 C-66.97544905 49.25816363 -73.09595509 53.68990813 -79.23046875 58.10546875 C-84.68083962 62.03392105 -90.09667078 66.00714521 -95.5 70 C-105.3539512 77.27959514 -115.28574596 84.44830513 -125.22949219 91.60449219 C-134.49152195 98.27234294 -143.71584893 104.98677039 -152.89428711 111.76928711 C-158.97544905 116.25816363 -165.09595509 120.68990813 -171.23046875 125.10546875 C-176.68083962 129.03392105 -182.09667078 133.00714521 -187.5 137 C-197.3539512 144.27959514 -207.28574596 151.44830513 -217.22949219 158.60449219 C-226.49152195 165.27234294 -235.71584893 171.98677039 -244.89428711 178.76928711 C-250.97544905 183.25816363 -257.09595509 187.68990813 -263.23046875 192.10546875 C-268.68083962 196.03392105 -274.09667078 200.00714521 -279.5 204 C-289.3539512 211.27959514 -299.28574596 218.44830513 -309.22949219 225.60449219 C-317.68593036 231.6923875 -326.11888909 237.80868741 -334.5 244 C-344.35407821 251.27942622 -354.28574334 258.44830324 -364.22949219 265.60449219 C-373.49152195 272.27234294 -382.71584893 278.98677039 -391.89428711 285.76928711 C-397.23835786 289.71407166 -402.6091038 293.61949947 -408 297.5 C-421.44475744 307.18164652 -434.77424436 317.02128617 -448 327 C-438.32251594 339.97833134 -428.45798069 352.813059 -418.58203125 365.640625 C-412.80705103 373.14832461 -407.06455025 380.68101704 -401.31347656 388.20703125 C-395.08597005 396.35598224 -388.85092388 404.49880015 -382.59375 412.625 C-378.99039753 417.30935821 -375.40484908 422.00734367 -371.81640625 426.703125 C-368.55151324 430.97437327 -365.27996042 435.24031114 -362 439.5 C-357.59227096 445.22432342 -353.20314475 450.96270617 -348.81640625 456.703125 C-345.55151324 460.97437327 -342.27996042 465.24031114 -339 469.5 C-334.59227096 475.22432342 -330.20314475 480.96270617 -325.81640625 486.703125 C-322.55151324 490.97437327 -319.27996042 495.24031114 -316 499.5 C-311.59227096 505.22432342 -307.20314475 510.96270617 -302.81640625 516.703125 C-299.55151324 520.97437327 -296.27996042 525.24031114 -293 529.5 C-288.59227096 535.22432342 -284.20314475 540.96270617 -279.81640625 546.703125 C-276.55151324 550.97437327 -273.27996042 555.24031114 -270 559.5 C-265.59959997 565.21480523 -261.21758369 570.9435031 -256.83837891 576.67456055 C-252.57911347 582.24704676 -248.30534619 587.80818044 -244.0234375 593.36328125 C-243.35570312 594.23339844 -242.68796875 595.10351562 -242 596 C-241.20244498 596.79369208 -241.20244498 596.79369208 -240.38877773 597.60341835 C-238.25038632 601.29359102 -238.64804582 604.79648792 -238.75611877 608.98202515 C-238.76823475 609.8689352 -238.78035073 610.75584525 -238.79283386 611.66963136 C-238.95390487 621.21751792 -239.40458006 630.75238849 -239.90209961 640.28759766 C-239.99942183 642.22501538 -240.09630673 644.16245511 -240.1927948 646.09991455 C-240.45273144 651.29369077 -240.71886383 656.48713169 -240.98635936 661.6805234 C-241.26685569 667.14486755 -241.54194056 672.60948453 -241.81776428 678.07406616 C-242.2809184 687.23428771 -242.74794034 696.3943054 -243.2175293 705.55419922 C-243.75938139 716.12422876 -244.29596421 726.69451532 -244.82955927 737.2649647 C-245.40003967 748.56512256 -245.97428096 759.86508701 -246.5496552 771.16499662 C-246.71438517 774.40504269 -246.87842448 777.6451231 -247.04231071 780.88521194 C-247.30016891 785.97936401 -247.56056113 791.07338063 -247.82287788 796.16730499 C-247.91844588 798.03041964 -248.01319407 799.89357656 -248.10704041 801.75677872 C-248.38015407 807.17280436 -248.67549063 812.58681811 -249 818 C-249.09154216 819.63561591 -249.09154216 819.63561591 -249.18493366 821.30427456 C-249.25073722 822.20426206 -249.31654078 823.10424955 -249.38433838 824.0315094 C-249.45944075 825.12329168 -249.45944075 825.12329168 -249.53606033 826.23713017 C-250 828 -250 828 -252.88208008 830.48950195 C-254.1592062 831.11231328 -255.45735676 831.69317284 -256.76953125 832.23828125 C-257.46869156 832.5660556 -258.16785187 832.89382996 -258.88819885 833.23153687 C-261.18113586 834.29599153 -263.49472505 835.30343 -265.8125 836.3125 C-267.41851583 837.04620586 -269.02283549 837.78363516 -270.62548828 838.5246582 C-273.86867499 840.01707378 -277.12033384 841.48762536 -280.38232422 842.93847656 C-285.61788497 845.26812097 -290.80935163 847.68551518 -296.00073242 850.11206055 C-299.38868032 851.69388732 -302.78381124 853.25949765 -306.1796875 854.82421875 C-313.32668473 858.13385361 -320.41572259 861.55902474 -327.5 865 C-336.91584362 869.57324793 -346.36847105 874.05482903 -355.875 878.4375 C-365.80530514 883.01641184 -375.66797401 887.71479544 -385.5 892.5 C-396.64300366 897.92280801 -407.83141952 903.22627771 -419.08959961 908.40673828 C-424.52229053 910.90882628 -429.93543899 913.43853572 -435.30859375 916.06640625 C-436.28425293 916.54166748 -437.25991211 917.01692871 -438.26513672 917.5065918 C-440.07951283 918.39414443 -441.89001487 919.28967809 -443.69580078 920.19458008 C-444.48841309 920.58154053 -445.28102539 920.96850098 -446.09765625 921.3671875 C-447.12644897 921.87934814 -447.12644897 921.87934814 -448.17602539 922.40185547 C-450 923 -450 923 -453 922 C-452.70867187 920.79730469 -452.41734375 919.59460938 -452.1171875 918.35546875 C-445.65376187 891.9340342 -445.65376187 891.9340342 -440.4375 865.25 C-439.29132614 858.41389163 -437.90825455 851.64867434 -436.4375 844.875 C-436.22730225 843.90208008 -436.01710449 842.92916016 -435.80053711 841.92675781 C-434.94964484 838.05178025 -434.07188711 834.24103325 -432.9375 830.4375 C-432.17691959 827.64870517 -431.69638018 825.10719574 -431.31640625 822.2578125 C-429.15151334 806.79599803 -429.15151334 806.79599803 -422.875 801.75 C-420.9387703 800.46602805 -418.98044073 799.21467031 -417 798 C-415.31439421 796.69069153 -413.64698067 795.35757512 -412 794 C-409.44522574 791.953759 -406.88800202 789.91180363 -404.31640625 787.88671875 C-398.35556314 783.12649936 -392.92230952 778.04105542 -387.59375 772.59765625 C-384.21467223 769.21348951 -380.66114708 766.07368508 -377 763 C-378.33999498 759.993182 -379.79845291 758.00237391 -382.1875 755.75 C-384.67452263 753.33957971 -387.00640807 750.88824786 -389.25 748.25 C-393.03203291 743.84333269 -397.17517015 739.83540185 -401.3515625 735.80859375 C-404 733 -404 733 -409 726 C-398.11 715.11 -387.22 704.22 -376 693 C-377.46436245 689.33909388 -378.39773521 687.17645561 -380.6171875 684.171875 C-381.13539063 683.46353516 -381.65359375 682.75519531 -382.1875 682.02539062 C-382.744375 681.27451172 -383.30125 680.52363281 -383.875 679.75 C-385.06073045 678.1308192 -386.24560731 676.511013 -387.4296875 674.890625 C-388.0287793 674.07271484 -388.62787109 673.25480469 -389.24511719 672.41210938 C-391.87074417 668.80315075 -394.43700635 665.15357447 -397 661.5 C-401.12319594 655.63462778 -405.2931504 649.8056523 -409.5 644 C-414.21195436 637.49727914 -418.86635191 630.95728209 -423.48486328 624.38793945 C-427.07395681 619.29095671 -430.71423156 614.23318566 -434.375 609.1875 C-439.58542777 602.0028574 -444.68980941 594.74912513 -449.76464844 587.46826172 C-454.19417512 581.12402847 -458.70232196 574.84086587 -463.24609375 568.578125 C-466.86978554 563.57901735 -470.44897885 558.550951 -474 553.5 C-478.12386145 547.63508857 -482.29314288 541.80566268 -486.5 536 C-491.21040657 529.49941517 -495.86297608 522.9613612 -500.48046875 516.39453125 C-504.11454566 511.2343328 -507.79671401 506.1107106 -511.5 501 C-516.21040657 494.49941517 -520.86297608 487.9613612 -525.48046875 481.39453125 C-529.11454566 476.2343328 -532.79671401 471.1107106 -536.5 466 C-541.21195436 459.49727914 -545.86635191 452.95728209 -550.48486328 446.38793945 C-554.07395803 441.29095497 -557.71433707 436.23326372 -561.375 431.1875 C-566.16312324 424.58249066 -570.88450161 417.93346795 -575.5625 411.25 C-576.14628418 410.41621826 -576.73006836 409.58243652 -577.33154297 408.72338867 C-578.41962639 407.16496729 -579.49738387 405.59926799 -580.56298828 404.02539062 C-582.07392231 401.8085842 -582.07392231 401.8085842 -584.46484375 399.296875 C-588.98831131 389.58235433 -583.84227156 372.5358279 -582.40795898 362.05126953 C-582.14142904 360.07883698 -581.87528598 358.10635212 -581.60949707 356.13381958 C-580.89241654 350.82023313 -580.16997748 345.50738791 -579.44652057 340.19466639 C-578.68930707 334.62710167 -577.93709809 329.05886086 -577.18434143 323.49069214 C-575.76062259 312.96505496 -574.33245157 302.44002697 -572.90265089 291.91521442 C-571.27403323 279.92526151 -569.65042435 267.93463202 -568.02722061 255.94394517 C-564.69035765 231.29521051 -561.34725505 206.64732542 -558 182 C-556.98180711 181.66066374 -555.96361422 181.32132748 -554.91456699 180.9717083 C-551.06905873 179.69008733 -547.22357523 178.4083921 -543.37809849 177.12667656 C-541.72645938 176.57618845 -540.07481392 176.0257194 -538.42316151 175.47527122 C-528.34185503 172.11544561 -518.26169601 168.75223905 -508.18359375 165.3828125 C-504.98076802 164.31282313 -501.77787371 163.24303939 -498.57495117 162.17333984 C-496.49566713 161.47857324 -494.41656324 160.78326721 -492.33764648 160.08740234 C-477.51664029 155.12735662 -462.66852843 150.2555532 -447.8046875 145.42578125 C-426.18979181 138.40211126 -404.60494412 131.28900829 -383.02557373 124.15704346 C-372.04518883 120.52806707 -361.0635739 116.90281486 -350.08203125 113.27734375 C-348.44642242 112.73731972 -348.44642242 112.73731972 -346.777771 112.18638611 C-327.48232317 105.81588347 -308.18109265 99.46316163 -288.875 93.125 C-283.31507837 91.29955772 -277.75518039 89.47404344 -272.1953125 87.6484375 C-271.50666925 87.42232725 -270.81802601 87.196217 -270.10851479 86.96325493 C-251.65212026 80.90297665 -233.20107051 74.82646427 -214.75 68.75 C-213.01954161 68.18012434 -211.28908304 67.61024926 -209.55862427 67.04037476 C-201.73126158 64.46264416 -193.90394288 61.88478 -186.07666111 59.3068037 C-169.69185609 53.91034224 -153.30670261 48.51493911 -136.92147827 43.11975098 C-133.53086639 42.00331785 -130.14026191 40.88686225 -126.74966431 39.77038574 C-107.36754185 33.38813524 -87.98494104 27.00734099 -68.6015625 20.62890625 C-66.75508088 20.02127674 -64.90859955 19.41364634 -63.06211853 18.80601501 C-55.10977712 16.18911731 -47.15740696 13.57230715 -39.2048912 10.95593929 C-35.98383929 9.8961829 -32.76283242 8.83628967 -29.54183578 7.77636528 C-28.05691458 7.28776233 -26.57197317 6.7992208 -25.08700943 6.31074715 C-23.70208679 5.85517848 -22.31722711 5.39941834 -20.9324379 4.94344425 C-19.05434712 4.32577503 -17.1753711 3.71079946 -15.2963562 3.09594727 C-13.24519463 2.41399278 -11.19969255 1.71444348 -9.16384888 0.98803711 C-3.29747639 -1.0991588 -3.29747639 -1.0991588 0 0 Z " fill="#8DD4E4" transform="translate(935,13)"/>
<path d="M0 0 C3.03333605 -0.22893102 5.97366814 -0.35414522 9 0 C11.0625 1.875 11.0625 1.875 12 4 C12 4.66 12 5.32 12 6 C12.61875 6.144375 13.2375 6.28875 13.875 6.4375 C16 7 16 7 18 8 C18 8.66 18 9.32 18 10 C18.804375 10.1546875 18.804375 10.1546875 19.625 10.3125 C22.62502044 11.18092697 25.2379535 12.55620296 28 14 C28 14.66 28 15.32 28 16 C28.66 16 29.32 16 30 16 C30 16.66 30 17.32 30 18 C30.66 18 31.32 18 32 18 C32 18.66 32 19.32 32 20 C32.66 20 33.32 20 34 20 C35.625 21.375 35.625 21.375 37 23 C37 23.66 37 24.32 37 25 C38.08861328 25.4021875 38.08861328 25.4021875 39.19921875 25.8125 C41.96864024 26.98670381 44.30919434 28.3394324 46.8125 30 C47.60269531 30.515625 48.39289063 31.03125 49.20703125 31.5625 C50.09455078 32.2740625 50.09455078 32.2740625 51 33 C51 33.66 51 34.32 51 35 C51.66 35 52.32 35 53 35 C53 35.66 53 36.32 53 37 C53.66 37 54.32 37 55 37 C55 37.66 55 38.32 55 39 C55.7425 39.28875 56.485 39.5775 57.25 39.875 C59.56739797 40.82302644 61.77917115 41.84845911 64 43 C64 43.66 64 44.32 64 45 C64.99 45 65.98 45 67 45 C67 45.66 67 46.32 67 47 C68.32 47 69.64 47 71 47 C71.33 48.32 71.66 49.64 72 51 C72.99 51 73.98 51 75 51 C75 51.66 75 52.32 75 53 C75.66 53 76.32 53 77 53 C77 53.66 77 54.32 77 55 C77.66 55 78.32 55 79 55 C79 55.66 79 56.32 79 57 C80.32 57 81.64 57 83 57 C83 57.66 83 58.32 83 59 C83.99 59 84.98 59 86 59 C86 59.66 86 60.32 86 61 C86.66 61 87.32 61 88 61 C88 61.66 88 62.32 88 63 C88.99 63.33 89.98 63.66 91 64 C91.66 64.33 92.32 64.66 93 65 C93 65.66 93 66.32 93 67 C93.66 67 94.32 67 95 67 C95 67.66 95 68.32 95 69 C95.99 69 96.98 69 98 69 C98 69.66 98 70.32 98 71 C98.99 71 99.98 71 101 71 C101 71.66 101 72.32 101 73 C101.99 73 102.98 73 104 73 C104 73.66 104 74.32 104 75 C104.99 75 105.98 75 107 75 C107 75.66 107 76.32 107 77 C107.99 77 108.98 77 110 77 C112 79 112 79 112 82 C112.66 82 113.32 82 114 82 C114 82.66 114 83.32 114 84 C115.98 84.66 117.96 85.32 120 86 C120 86.66 120 87.32 120 88 C120.5775 88.103125 121.155 88.20625 121.75 88.3125 C124.35661158 89.10896465 125.9735311 90.19065277 128 92 C128 92.66 128 93.32 128 94 C128.66 94 129.32 94 130 94 C130 94.66 130 95.32 130 96 C130.598125 96.28875 131.19625 96.5775 131.8125 96.875 C134 98 134 98 137 100 C137 100.66 137 101.32 137 102 C138.32 102.33 139.64 102.66 141 103 C140.85816304 104.75032844 140.71136571 106.50025534 140.5625 108.25 C140.48128906 109.22453125 140.40007812 110.1990625 140.31640625 111.203125 C139.9333722 114.58895682 139.21077991 117.44670274 138 120.625 C136.6895454 125.04778427 136.34440047 129.4140359 136 134 C135.34 134 134.68 134 134 134 C134.0309375 135.9490625 134.0309375 135.9490625 134.0625 137.9375 C134.08399454 139.29165633 134.07148199 140.64756083 134 142 C133.67 142.33 133.34 142.66 133 143 C132.76712992 144.68183948 132.58735834 146.3712416 132.4375 148.0625 C132.35371094 148.98160156 132.26992188 149.90070313 132.18359375 150.84765625 C132.12300781 151.55792969 132.06242187 152.26820313 132 153 C131.34 153 130.68 153 130 153 C130 156.3 130 159.6 130 163 C129.34 163 128.68 163 128 163 C128 166.3 128 169.6 128 173 C127.34 173 126.68 173 126 173 C126 174.98 126 176.96 126 179 C125.34 179 124.68 179 124 179 C124 183.62 124 188.24 124 193 C123.34 193 122.68 193 122 193 C122 195.31 122 197.62 122 200 C121.34 200 120.68 200 120 200 C120.02320313 200.56847656 120.04640625 201.13695312 120.0703125 201.72265625 C120.19191688 206.92558648 119.67723492 211.07312243 118 216 C117.34 216 116.68 216 116 216 C116 219.3 116 222.6 116 226 C115.01 226 114.02 226 113 226 C113 226.66 113 227.32 113 228 C111.35 228 109.7 228 108 228 C108 228.66 108 229.32 108 230 C107.34 230 106.68 230 106 230 C106 230.66 106 231.32 106 232 C102.12315913 233.19287411 99.08378077 234 95 234 C95 234.66 95 235.32 95 236 C91.77208445 238.1519437 90.71599191 238.20086443 87 238 C87 238.66 87 239.32 87 240 C85.68 240 84.36 240 83 240 C83 240.66 83 241.32 83 242 C81.02 242 79.04 242 77 242 C77 242.66 77 243.32 77 244 C76.34 244 75.68 244 75 244 C75 244.66 75 245.32 75 246 C74.35933594 246.25394531 73.71867188 246.50789062 73.05859375 246.76953125 C70.36960866 247.83951488 67.6846241 248.91912663 65 250 C64.278125 250.28488281 63.55625 250.56976562 62.8125 250.86328125 C59.23505116 252.13411777 59.23505116 252.13411777 57 255 C53.54670274 256.72664863 50.84169158 257.21952523 47 257 C47 257.66 47 258.32 47 259 C46.01 259 45.02 259 44 259 C44 259.66 44 260.32 44 261 C42.35 261 40.7 261 39 261 C39 261.66 39 262.32 39 263 C38.01 263 37.02 263 36 263 C36 263.66 36 264.32 36 265 C33.69 265 31.38 265 29 265 C29 265.66 29 266.32 29 267 C28.01 267 27.02 267 26 267 C26 267.66 26 268.32 26 269 C22.5980513 271.09350689 19.94727588 271.17942163 16 271 C16 271.66 16 272.32 16 273 C14.68 273 13.36 273 12 273 C12 273.66 12 274.32 12 275 C11.34 275.66 10.68 276.32 10 277 C8.68 277 7.36 277 6 277 C6 277.66 6 278.32 6 279 C4.02 279 2.04 279 0 279 C0 279.66 0 280.32 0 281 C-1.98 281 -3.96 281 -6 281 C-6 281.66 -6 282.32 -6 283 C-6.66 283 -7.32 283 -8 283 C-8 283.66 -8 284.32 -8 285 C-9.32 285 -10.64 285 -12 285 C-12 285.66 -12 286.32 -12 287 C-14.31 287 -16.62 287 -19 287 C-19 287.66 -19 288.32 -19 289 C-19.99 289 -20.98 289 -22 289 C-22 289.66 -22 290.32 -22 291 C-23.66215488 291.71235209 -25.32455944 292.42412775 -26.98828125 293.1328125 C-28.30312308 293.69959869 -29.61332427 294.27730751 -30.91796875 294.8671875 C-33.79737895 296.15647565 -35.80679558 297 -39 297 C-39 297.66 -39 298.32 -39 299 C-42 301 -42 301 -45.0625 301.8125 C-49.12423336 302.89619777 -52.6422709 304.76655266 -56.359375 306.69921875 C-59.84167873 308.41461393 -63.42418663 309.77017763 -67.06640625 311.10546875 C-69.1794393 311.83888291 -69.1794393 311.83888291 -70 314 C-71.32 314 -72.64 314 -74 314 C-74 314.66 -74 315.32 -74 316 C-77.48143424 318.32095616 -79.88903554 318.49514472 -84 319 C-85.33917261 319.30903983 -86.67653254 319.62942911 -88 320 C-88 320.66 -88 321.32 -88 322 C-91.22791555 324.1519437 -92.28400809 324.20086443 -96 324 C-96 324.66 -96 325.32 -96 326 C-97.65 326 -99.3 326 -101 326 C-101 326.66 -101 327.32 -101 328 C-101.99 328 -102.98 328 -104 328 C-104 328.66 -104 329.32 -104 330 C-104.66 330 -105.32 330 -106 330 C-106 330.66 -106 331.32 -106 332 C-108.31 332.33 -110.62 332.66 -113 333 C-113 333.33 -113 333.66 -113 334 C-114.65 334 -116.3 334 -118 334 C-118 334.66 -118 335.32 -118 336 C-119.32 336 -120.64 336 -122 336 C-122 336.66 -122 337.32 -122 338 C-124.1875 339.75 -124.1875 339.75 -127 341 C-129.8125 340.1875 -129.8125 340.1875 -132 339 C-132 338.01 -132 337.02 -132 336 C-131.34 336 -130.68 336 -130 336 C-130 335.34 -130 334.68 -130 334 C-129.34 334 -128.68 334 -128 334 C-127.67 332.68 -127.34 331.36 -127 330 C-126.34 330 -125.68 330 -125 330 C-125 329.34 -125 328.68 -125 328 C-124.34 328 -123.68 328 -123 328 C-121.91887052 325.98189163 -121.048936 324.260992 -120.625 322 C-119.76757344 319.25623499 -118.06997149 317.94059827 -116 316 C-115.67 315.34 -115.34 314.68 -115 314 C-114.34 314 -113.68 314 -113 314 C-113 313.34 -113 312.68 -113 312 C-112.34 312 -111.68 312 -111 312 C-110.855625 311.21625 -110.71125 310.4325 -110.5625 309.625 C-110 307 -110 307 -109 305 C-108.34 305 -107.68 305 -107 305 C-107 304.34 -107 303.68 -107 303 C-106.34 303 -105.68 303 -105 303 C-105 302.34 -105 301.68 -105 301 C-104.34 301 -103.68 301 -103 301 C-102.34 299.02 -101.68 297.04 -101 295 C-100.34 295 -99.68 295 -99 295 C-99 294.34 -99 293.68 -99 293 C-98.34 293 -97.68 293 -97 293 C-97 292.34 -97 291.68 -97 291 C-96.34 291 -95.68 291 -95 291 C-95 289.68 -95 288.36 -95 287 C-94.34 287 -93.68 287 -93 287 C-93 286.34 -93 285.68 -93 285 C-92.34 285 -91.68 285 -91 285 C-90.34 283.02 -89.68 281.04 -89 279 C-88.34 279 -87.68 279 -87 279 C-87 277.68 -87 276.36 -87 275 C-86.34 275 -85.68 275 -85 275 C-85 274.34 -85 273.68 -85 273 C-84.34 273 -83.68 273 -83 273 C-83 272.34 -83 271.68 -83 271 C-82.34 271 -81.68 271 -81 271 C-81 270.34 -81 269.68 -81 269 C-80.34 269 -79.68 269 -79 269 C-78.67 267.35 -78.34 265.7 -78 264 C-77.01 263.67 -76.02 263.34 -75 263 C-75 262.34 -75 261.68 -75 261 C-74.34 261 -73.68 261 -73 261 C-72.87625 260.38125 -72.7525 259.7625 -72.625 259.125 C-72 257 -72 257 -70 255 C-69.29289322 253.35008418 -68.62056011 251.68437744 -68 250 C-67.01 250 -66.02 250 -65 250 C-64.01 247.03 -64.01 247.03 -63 244 C-62.34 244 -61.68 244 -61 244 C-61 242.68 -61 241.36 -61 240 C-60.34 240 -59.68 240 -59 240 C-59 239.34 -59 238.68 -59 238 C-58.34 238 -57.68 238 -57 238 C-57 237.34 -57 236.68 -57 236 C-56.34 236 -55.68 236 -55 236 C-54.67 234.68 -54.34 233.36 -54 232 C-53.34 232 -52.68 232 -52 232 C-51.01 229.03 -51.01 229.03 -50 226 C-49.34 226 -48.68 226 -48 226 C-48 225.34 -48 224.68 -48 224 C-47.34 224 -46.68 224 -46 224 C-45.34 222.68 -44.68 221.36 -44 220 C-43.34 220 -42.68 220 -42 220 C-42 218.68 -42 217.36 -42 216 C-41.34 216 -40.68 216 -40 216 C-40 215.34 -40 214.68 -40 214 C-39.34 214 -38.68 214 -38 214 C-38 213.34 -38 212.68 -38 212 C-37.34 212 -36.68 212 -36 212 C-36 211.34 -36 210.68 -36 210 C-35.34 210 -34.68 210 -34 210 C-34 208.68 -34 207.36 -34 206 C-33.34 206 -32.68 206 -32 206 C-31.62875 204.6696875 -31.62875 204.6696875 -31.25 203.3125 C-29.95035375 199.86843744 -28.51270773 197.66975197 -26 195 C-25.34 195 -24.68 195 -24 195 C-24 193.68 -24 192.36 -24 191 C-23.34 191 -22.68 191 -22 191 C-21.67 189.68 -21.34 188.36 -21 187 C-17.04 187 -13.08 187 -9 187 C-9 187.66 -9 188.32 -9 189 C-7.02 189 -5.04 189 -3 189 C-3 188.34 -3 187.68 -3 187 C-2.34 187 -1.68 187 -1 187 C-1 187.66 -1 188.32 -1 189 C-0.34 189 0.32 189 1 189 C1 188.34 1 187.68 1 187 C3.97 187 6.94 187 10 187 C10 186.34 10 185.68 10 185 C10.99 185 11.98 185 13 185 C13 184.34 13 183.68 13 183 C14.32 183 15.64 183 17 183 C17.33 181.68 17.66 180.36 18 179 C18.99 179 19.98 179 21 179 C21 178.34 21 177.68 21 177 C21.66 177 22.32 177 23 177 C23 176.34 23 175.68 23 175 C23.66 175 24.32 175 25 175 C25 173.68 25 172.36 25 171 C25.66 171 26.32 171 27 171 C27 169.68 27 168.36 27 167 C27.66 167 28.32 167 29 167 C29.66 159.74 30.32 152.48 31 145 C30.34 145 29.68 145 29 145 C28.01 140.545 28.01 140.545 27 136 C26.34 136 25.68 136 25 136 C25 134.68 25 133.36 25 132 C24.34 132 23.68 132 23 132 C20.875 130.125 20.875 130.125 19 128 C19 127.34 19 126.68 19 126 C18.34 126 17.68 126 17 126 C17 125.34 17 124.68 17 124 C16.30519531 123.86722656 15.61039063 123.73445312 14.89453125 123.59765625 C11.80129014 122.95897084 8.74959602 122.21143636 5.6875 121.4375 C4.61886719 121.16808594 3.55023438 120.89867187 2.44921875 120.62109375 C1.64097656 120.41613281 0.83273437 120.21117187 0 120 C0 119.34 0 118.68 0 118 C-2.64 118 -5.28 118 -8 118 C-8 118.66 -8 119.32 -8 120 C-9.98 120 -11.96 120 -14 120 C-14 120.66 -14 121.32 -14 122 C-15.98 122 -17.96 122 -20 122 C-20 122.66 -20 123.32 -20 124 C-21.32 124 -22.64 124 -24 124 C-24 124.66 -24 125.32 -24 126 C-24.66 126 -25.32 126 -26 126 C-26 126.99 -26 127.98 -26 129 C-26.804375 129.474375 -27.60875 129.94875 -28.4375 130.4375 C-31.1578895 131.73355856 -31.1578895 131.73355856 -31.8125 134.1875 C-31.874375 134.785625 -31.93625 135.38375 -32 136 C-32.66 136 -33.32 136 -34 136 C-34.66 138.97 -35.32 141.94 -36 145 C-36.66 145 -37.32 145 -38 145 C-38 149.62 -38 154.24 -38 159 C-37.34 159 -36.68 159 -36 159 C-35.96261719 159.60328125 -35.92523438 160.2065625 -35.88671875 160.828125 C-35.50294663 165.49359002 -35.19155881 168.39215091 -32 172 C-32 172.99 -32 173.98 -32 175 C-31.34 175 -30.68 175 -30 175 C-30 176.32 -30 177.64 -30 179 C-30.66 179 -31.32 179 -32 179 C-32 180.32 -32 181.64 -32 183 C-32.99 183.33 -33.98 183.66 -35 184 C-35.4640625 185.2065625 -35.4640625 185.2065625 -35.9375 186.4375 C-37.21942913 189.52921144 -38.08871689 189.63533604 -41 191 C-42.26804566 193.0335948 -42.26804566 193.0335948 -43 195 C-43.66 195 -44.32 195 -45 195 C-45.144375 195.78375 -45.28875 196.5675 -45.4375 197.375 C-46 200 -46 200 -47 202 C-47.66 202 -48.32 202 -49 202 C-49 202.66 -49 203.32 -49 204 C-49.66 204 -50.32 204 -51 204 C-51 204.66 -51 205.32 -51 206 C-51.66 206 -52.32 206 -53 206 C-53 207.32 -53 208.64 -53 210 C-53.66 210 -54.32 210 -55 210 C-55 210.66 -55 211.32 -55 212 C-55.66 212 -56.32 212 -57 212 C-57 213.32 -57 214.64 -57 216 C-57.66 216 -58.32 216 -59 216 C-59 216.66 -59 217.32 -59 218 C-59.66 218 -60.32 218 -61 218 C-61 218.66 -61 219.32 -61 220 C-61.66 220 -62.32 220 -63 220 C-63 220.66 -63 221.32 -63 222 C-63.66 222 -64.32 222 -65 222 C-65 223.32 -65 224.64 -65 226 C-65.66 226 -66.32 226 -67 226 C-67 226.66 -67 227.32 -67 228 C-67.66 228 -68.32 228 -69 228 C-69 229.32 -69 230.64 -69 232 C-69.66 232 -70.32 232 -71 232 C-71 232.66 -71 233.32 -71 234 C-71.66 234 -72.32 234 -73 234 C-73.268125 234.94875 -73.53625 235.8975 -73.8125 236.875 C-75 240 -75 240 -78 242 C-78.15726562 242.64324219 -78.31453125 243.28648437 -78.4765625 243.94921875 C-79.152076 246.59582015 -80.19938755 247.21980481 -82.375 248.8125 C-86.13454342 251.83094246 -87.46032546 254.47154546 -89 259 C-89.66 259 -90.32 259 -91 259 C-91 260.32 -91 261.64 -91 263 C-92.32 263.66 -93.64 264.32 -95 265 C-95 265.66 -95 266.32 -95 267 C-95.66 267 -96.32 267 -97 267 C-97 268.32 -97 269.64 -97 271 C-97.99 271 -98.98 271 -100 271 C-100 271.66 -100 272.32 -100 273 C-100.66 273 -101.32 273 -102 273 C-102.33 274.32 -102.66 275.64 -103 277 C-103.66 277 -104.32 277 -105 277 C-105.66 278.98 -106.32 280.96 -107 283 C-107.99 283 -108.98 283 -110 283 C-110 283.66 -110 284.32 -110 285 C-110.66 285 -111.32 285 -112 285 C-112 286.32 -112 287.64 -112 289 C-112.66 289 -113.32 289 -114 289 C-114 289.66 -114 290.32 -114 291 C-114.66 291 -115.32 291 -116 291 C-116.1546875 291.86625 -116.1546875 291.86625 -116.3125 292.75 C-117.10896465 295.35661158 -118.19065277 296.9735311 -120 299 C-120.66 299 -121.32 299 -122 299 C-122.2475 299.9075 -122.495 300.815 -122.75 301.75 C-124.04806201 305.12496123 -125.21971841 306.74102121 -128 309 C-128.66 309 -129.32 309 -130 309 C-130.2165625 310.175625 -130.2165625 310.175625 -130.4375 311.375 C-131 314 -131 314 -132 316 C-132.66 316 -133.32 316 -134 316 C-134.1546875 316.86625 -134.1546875 316.86625 -134.3125 317.75 C-135.10896465 320.35661158 -136.19065277 321.9735311 -138 324 C-138.66 324 -139.32 324 -140 324 C-140 324.66 -140 325.32 -140 326 C-140.66 326 -141.32 326 -142 326 C-142 326.66 -142 327.32 -142 328 C-142.99 328 -143.98 328 -145 328 C-145.02710123 325.4374282 -145.04688771 322.87514635 -145.0625 320.3125 C-145.07087891 319.59126953 -145.07925781 318.87003906 -145.08789062 318.12695312 C-145.10543632 314.28444618 -144.93524221 310.73360474 -144 307 C-143.34 307 -142.68 307 -142 307 C-142.01740234 305.60974609 -142.01740234 305.60974609 -142.03515625 304.19140625 C-142.04417969 302.99386719 -142.05320313 301.79632812 -142.0625 300.5625 C-142.07410156 299.36753906 -142.08570313 298.17257812 -142.09765625 296.94140625 C-142 294 -142 294 -141 293 C-140.76572222 290.98405418 -140.58663876 288.961526 -140.4375 286.9375 C-140.31181641 285.28041016 -140.31181641 285.28041016 -140.18359375 283.58984375 C-140.12300781 282.73519531 -140.06242188 281.88054687 -140 281 C-139.34 281 -138.68 281 -138 281 C-138 276.38 -138 271.76 -138 267 C-137.34 267 -136.68 267 -136 267 C-136 263.7 -136 260.4 -136 257 C-135.34 257 -134.68 257 -134 257 C-134 251.39 -134 245.78 -134 240 C-133.34 240 -132.68 240 -132 240 C-132 239.08476563 -132 238.16953125 -132 237.2265625 C-132 232.15104167 -132 227.07552083 -132 222 C-131.34 222 -130.68 222 -130 222 C-130 219.03 -130 216.06 -130 213 C-129.67 213 -129.34 213 -129 213 C-128.67 209.7 -128.34 206.4 -128 203 C-127.67 203 -127.34 203 -127 203 C-126.93941406 201.92878906 -126.87882812 200.85757813 -126.81640625 199.75390625 C-126.73201463 198.35675609 -126.64736594 196.95962143 -126.5625 195.5625 C-126.52318359 194.85544922 -126.48386719 194.14839844 -126.44335938 193.41992188 C-126.11328125 188.11328125 -126.11328125 188.11328125 -125 187 C-124.76346477 184.47403741 -124.57826308 181.96892793 -124.4375 179.4375 C-124.39431641 178.72658203 -124.35113281 178.01566406 -124.30664062 177.28320312 C-124.20028223 175.52238088 -124.09961154 173.7612168 -124 172 C-123.67 172 -123.34 172 -123 172 C-122.67 169.03 -122.34 166.06 -122 163 C-121.34 163 -120.68 163 -120 163 C-120 157.72 -120 152.44 -120 147 C-119.34 147 -118.68 147 -118 147 C-118 142.38 -118 137.76 -118 133 C-117.34 133 -116.68 133 -116 133 C-116.01160156 132.00097656 -116.02320313 131.00195312 -116.03515625 129.97265625 C-116.04417969 128.68230469 -116.05320313 127.39195312 -116.0625 126.0625 C-116.07410156 124.77472656 -116.08570313 123.48695313 -116.09765625 122.16015625 C-116 119 -116 119 -115 118 C-114.71612221 115.77854367 -114.55234827 113.55682352 -114.37890625 111.32421875 C-113.97858369 108.8686319 -113.10964431 107.20581115 -112 105 C-112 103.88625 -112 102.7725 -112 101.625 C-112 98 -112 98 -111.03515625 95.21875 C-109.89739508 91.68095679 -109.62556994 88.58037803 -109.4375 84.875 C-109.23842836 81.09670162 -109.00420713 77.6429996 -108 74 C-107.65198134 72.02336275 -107.31982163 70.04389495 -107 68.0625 C-106.40055595 64.35812312 -105.75808751 60.67537071 -105 57 C-104.34 57 -103.68 57 -103 57 C-103 56.34 -103 55.68 -103 55 C-101.35 55 -99.7 55 -98 55 C-98 54.34 -98 53.68 -98 53 C-97.01 53 -96.02 53 -95 53 C-95 52.34 -95 51.68 -95 51 C-93.02 51 -91.04 51 -89 51 C-88.67 49.68 -88.34 48.36 -88 47 C-86.35 47 -84.7 47 -83 47 C-83 46.34 -83 45.68 -83 45 C-79.91190305 43.23537317 -78.76687864 43 -75 43 C-75 42.34 -75 41.68 -75 41 C-73.68 41 -72.36 41 -71 41 C-70.773125 40.38125 -70.54625 39.7625 -70.3125 39.125 C-68.58360067 36.32582965 -67.12157643 35.89187898 -64 35 C-62.68 35 -61.36 35 -60 35 C-60 34.34 -60 33.68 -60 33 C-57 32 -57 32 -54 33 C-54.33 32.01 -54.66 31.02 -55 30 C-53.35 29.67 -51.7 29.34 -50 29 C-50 28.34 -50 27.68 -50 27 C-48.02 27 -46.04 27 -44 27 C-44 26.34 -44 25.68 -44 25 C-43.34 25 -42.68 25 -42 25 C-42 24.34 -42 23.68 -42 23 C-40.68 23 -39.36 23 -38 23 C-37.505 21.515 -37.505 21.515 -37 20 C-36.34 20 -35.68 20 -35 20 C-35 19.34 -35 18.68 -35 18 C-31.86501708 16.14223235 -29.62528568 15.79859524 -26 16 C-26 15.34 -26 14.68 -26 14 C-24.02 13.34 -22.04 12.68 -20 12 C-20 11.34 -20 10.68 -20 10 C-16 8.66666667 -12 7.33333333 -8 6 C-8 5.34 -8 4.68 -8 4 C-6.68 4 -5.36 4 -4 4 C-4 3.34 -4 2.68 -4 2 C-2.68 2 -1.36 2 0 2 C0 1.34 0 0.68 0 0 Z " fill="#43BBD2" transform="translate(348,722)"/>
<path d="M0 0 C74.25 0 148.5 0 225 0 C225 16.5 225 33 225 50 C167.25 50 109.5 50 50 50 C50 98.84 50 147.68 50 198 C33.5 198 17 198 0 198 C0 132.66 0 67.32 0 0 Z " fill="#FFFFFF" transform="translate(118,118)"/>
<path d="M0 0 C2.97 0.495 2.97 0.495 6 1 C6 1.66 6 2.32 6 3 C6.66 3 7.32 3 8 3 C8 3.66 8 4.32 8 5 C8.66 5 9.32 5 10 5 C10 5.66 10 6.32 10 7 C10.99 7 11.98 7 13 7 C13 7.66 13 8.32 13 9 C13.66 9 14.32 9 15 9 C15 9.66 15 10.32 15 11 C15.99 11 16.98 11 18 11 C18 11.66 18 12.32 18 13 C18.86625 13.1546875 18.86625 13.1546875 19.75 13.3125 C22.35661158 14.10896465 23.9735311 15.19065277 26 17 C26 17.66 26 18.32 26 19 C26.99 19 27.98 19 29 19 C29 19.66 29 20.32 29 21 C29.99 21.33 30.98 21.66 32 22 C34.1875 23.4375 34.1875 23.4375 36 25 C36 25.66 36 26.32 36 27 C37.32 27 38.64 27 40 27 C42.125 28.9375 42.125 28.9375 44 31 C44.66 31.33 45.32 31.66 46 32 C46 32.66 46 33.32 46 34 C47.32 34.66 48.64 35.32 50 36 C50 36.66 50 37.32 50 38 C51.65 38.66 53.3 39.32 55 40 C55 40.66 55 41.32 55 42 C55.598125 42.144375 56.19625 42.28875 56.8125 42.4375 C58.56150404 42.8872439 60.28677023 43.42892341 62 44 C62 44.66 62 45.32 62 46 C62.66 46 63.32 46 64 46 C64 46.66 64 47.32 64 48 C64.66 48 65.32 48 66 48 C66 48.66 66 49.32 66 50 C67.65 50.66 69.3 51.32 71 52 C71 52.66 71 53.32 71 54 C71.66 54 72.32 54 73 54 C73 54.66 73 55.32 73 56 C73.99 56 74.98 56 76 56 C76 56.66 76 57.32 76 58 C76.598125 58.144375 77.19625 58.28875 77.8125 58.4375 C79.56150404 58.8872439 81.28677023 59.42892341 83 60 C83 60.66 83 61.32 83 62 C83.99 62 84.98 62 86 62 C86 62.66 86 63.32 86 64 C86.66 64 87.32 64 88 64 C88 64.66 88 65.32 88 66 C88.99 66 89.98 66 91 66 C91 66.66 91 67.32 91 68 C91.66 68 92.32 68 93 68 C93 68.66 93 69.32 93 70 C94.485 70.495 94.485 70.495 96 71 C97.485 71.495 97.485 71.495 99 72 C99 72.66 99 73.32 99 74 C99.66 74 100.32 74 101 74 C101 74.66 101 75.32 101 76 C102.485 76.495 102.485 76.495 104 77 C106.6875 78.4375 106.6875 78.4375 109 80 C109 80.66 109 81.32 109 82 C109.66 82 110.32 82 111 82 C111 82.66 111 83.32 111 84 C111.66 84 112.32 84 113 84 C113 84.66 113 85.32 113 86 C113.721875 86.268125 114.44375 86.53625 115.1875 86.8125 C117.99766383 87.99901362 120.48416557 89.27485639 123 91 C123 91.66 123 92.32 123 93 C124.65 93.66 126.3 94.32 128 95 C128 95.66 128 96.32 128 97 C128.5775 97.28875 129.155 97.5775 129.75 97.875 C131.83333333 98.91666667 133.91666667 99.95833333 136 101 C136 101.66 136 102.32 136 103 C136.99 103 137.98 103 139 103 C139 103.66 139 104.32 139 105 C139.598125 105.28875 140.19625 105.5775 140.8125 105.875 C143 107 143 107 146 109 C146 109.66 146 110.32 146 111 C146.99 111 147.98 111 149 111 C149 111.66 149 112.32 149 113 C149.99 113 150.98 113 152 113 C152.33 114.98 152.66 116.96 153 119 C152.01 119 151.02 119 150 119 C150 119.66 150 120.32 150 121 C149.34 121 148.68 121 148 121 C148 121.66 148 122.32 148 123 C147.34 123 146.68 123 146 123 C146 123.66 146 124.32 146 125 C145.01 125 144.02 125 143 125 C142.938125 125.598125 142.87625 126.19625 142.8125 126.8125 C141.6717356 129.88378877 139.79687484 130.3218751 137 132 C135.96624217 133.13686229 134.96811495 134.30674204 134 135.5 C131.58232219 138.4618099 129.30118325 140.05314834 126 142 C125.07237737 143.03486224 124.17758586 144.09981895 123.3125 145.1875 C122.1678125 146.5796875 122.1678125 146.5796875 121 148 C120.34 148 119.68 148 119 148 C119 148.66 119 149.32 119 150 C118.01 150 117.02 150 116 150 C116 150.66 116 151.32 116 152 C115.01 152 114.02 152 113 152 C113 153.32 113 154.64 113 156 C111.35 156 109.7 156 108 156 C108 155.34 108 154.68 108 154 C107.01 153.67 106.02 153.34 105 153 C104.34 152.67 103.68 152.34 103 152 C103 151.34 103 150.68 103 150 C102.01 149.67 101.02 149.34 100 149 C99 148 98 147 97 146 C96.278125 145.5875 95.55625 145.175 94.8125 144.75 C91.47484226 142.67323519 88.7508841 140.18272191 85.8671875 137.5234375 C83.97265891 135.79382183 83.97265891 135.79382183 81 135 C81 134.34 81 133.68 81 133 C80.1646875 132.8453125 80.1646875 132.8453125 79.3125 132.6875 C76.5230899 131.85821592 74.3860936 130.65700944 72 129 C72 128.34 72 127.68 72 127 C71.01 127 70.02 127 69 127 C66.8125 125.125 66.8125 125.125 65 123 C65 122.34 65 121.68 65 121 C64.34 121 63.68 121 63 121 C63 120.34 63 119.68 63 119 C62.01 119 61.02 119 60 119 C60 118.34 60 117.68 60 117 C59.01 117 58.02 117 57 117 C57 116.34 57 115.68 57 115 C56.01 115 55.02 115 54 115 C54 114.34 54 113.68 54 113 C53.34 113 52.68 113 52 113 C52 112.34 52 111.68 52 111 C51.01 111 50.02 111 49 111 C49 110.34 49 109.68 49 109 C48.34 109 47.68 109 47 109 C47 108.34 47 107.68 47 107 C46.34 107 45.68 107 45 107 C45 106.34 45 105.68 45 105 C44.1028125 104.7834375 44.1028125 104.7834375 43.1875 104.5625 C41.43849596 104.1127561 39.71322977 103.57107659 38 103 C38 102.34 38 101.68 38 101 C37.01 101 36.02 101 35 101 C35 100.34 35 99.68 35 99 C34.01 99 33.02 99 32 99 C32 98.34 32 97.68 32 97 C31.01 96.67 30.02 96.34 29 96 C26.8125 94.5625 26.8125 94.5625 25 93 C25 92.34 25 91.68 25 91 C24.01 90.67 23.02 90.34 22 90 C20.57424202 89.06494266 19.17980229 88.08112775 17.8125 87.0625 C17.09707031 86.53785156 16.38164062 86.01320313 15.64453125 85.47265625 C15.10183594 84.98667969 14.55914062 84.50070312 14 84 C14 83.34 14 82.68 14 82 C13.278125 81.7525 12.55625 81.505 11.8125 81.25 C8.72393418 79.87730408 6.48988582 78.27646704 4 76 C4 75.34 4 74.68 4 74 C3.34 74 2.68 74 2 74 C2 73.34 2 72.68 2 72 C1.278125 71.896875 0.55625 71.79375 -0.1875 71.6875 C-3.27793421 70.93206053 -5.41743841 69.84468685 -8 68 C-8 67.34 -8 66.68 -8 66 C-8.66 66 -9.32 66 -10 66 C-10 65.34 -10 64.68 -10 64 C-10.66 64 -11.32 64 -12 64 C-12 63.34 -12 62.68 -12 62 C-12.99 62 -13.98 62 -15 62 C-15 61.34 -15 60.68 -15 60 C-15.99 60 -16.98 60 -18 60 C-18 59.34 -18 58.68 -18 58 C-18.99 58 -19.98 58 -21 58 C-21 57.34 -21 56.68 -21 56 C-21.66 56 -22.32 56 -23 56 C-23 53.03 -23 50.06 -23 47 C-21.515 46.505 -21.515 46.505 -20 46 C-20.226875 45.236875 -20.45375 44.47375 -20.6875 43.6875 C-20.790625 42.800625 -20.89375 41.91375 -21 41 C-19.625 39.4375 -19.625 39.4375 -18 38 C-17.64830932 36.67139075 -17.31229724 35.33841672 -17 34 C-16.01 33.505 -16.01 33.505 -15 33 C-14.08968728 30.65613191 -14.08968728 30.65613191 -13.375 27.9375 C-13.11460937 27.01839844 -12.85421875 26.09929688 -12.5859375 25.15234375 C-12.39257812 24.44207031 -12.19921875 23.73179687 -12 23 C-11.34 23 -10.68 23 -10 23 C-9.34 20.36 -8.68 17.72 -8 15 C-7.34 15 -6.68 15 -6 15 C-6 14.34 -6 13.68 -6 13 C-5.34 13 -4.68 13 -4 13 C-3.855625 12.0925 -3.71125 11.185 -3.5625 10.25 C-3.13590527 7.78523044 -2.64925779 5.41152893 -2 3 C-1.34 3 -0.68 3 0 3 C0 2.01 0 1.02 0 0 Z " fill="#57C2D7" transform="translate(387,656)"/>
<path d="M0 0 C16.5 0 33 0 50 0 C50 36.96 50 73.92 50 112 C4.13 112 -41.74 112 -89 112 C-89 95.5 -89 79 -89 62 C-59.63 62 -30.26 62 0 62 C0 41.54 0 21.08 0 0 Z " fill="#FFFFFF" transform="translate(911,849)"/>
<path d="M0 0 C16.5 0 33 0 50 0 C50 66.33 50 132.66 50 201 C33.5 201 17 201 0 201 C0 134.67 0 68.34 0 0 Z " fill="#FFFFFF" transform="translate(118,715)"/>
<path d="M0 0 C16.5 0 33 0 50 0 C50 66.33 50 132.66 50 201 C33.5 201 17 201 0 201 C0 134.67 0 68.34 0 0 Z " fill="#FFFFFF" transform="translate(911,549)"/>
<path d="M0 0 C16.5 0 33 0 50 0 C50 66.33 50 132.66 50 201 C33.5 201 17 201 0 201 C0 134.67 0 68.34 0 0 Z " fill="#FFFFFF" transform="translate(118,415)"/>
<path d="M0 0 C16.5 0 33 0 50 0 C50 66.33 50 132.66 50 201 C33.5 201 17 201 0 201 C0 134.67 0 68.34 0 0 Z " fill="#FFFFFF" transform="translate(911,249)"/>
<path d="M0 0 C1.21438751 -0.00137466 2.42877502 -0.00274933 3.67996216 -0.00416565 C5.03280664 -0.00062629 6.38565088 0.00300853 7.73849487 0.00672913 C9.15749103 0.00701108 10.57648733 0.00685311 11.9954834 0.00628662 C15.85475872 0.00599896 19.71400315 0.0118906 23.57327127 0.01886058 C27.60383861 0.02509936 31.63440661 0.02569833 35.66497803 0.02688599 C43.30060082 0.02999775 50.93620936 0.03820906 58.57182586 0.04823548 C67.2633615 0.05940141 75.95489781 0.06490828 84.64643884 0.06993091 C102.52853366 0.0803918 120.41060892 0.09873536 138.29269409 0.12025452 C138.29269409 16.62025452 138.29269409 33.12025452 138.29269409 50.12025452 C71.96269409 50.12025452 5.63269409 50.12025452 -62.70730591 50.12025452 C-62.70730591 42.53025452 -62.70730591 34.94025452 -62.70730591 27.12025452 C-45.23992722 18.64996215 -27.7062157 10.3469619 -10.07620239 2.22084045 C-6.3037878 0.468182 -4.22398436 -0.00367303 0 0 Z " fill="#FFFFFF" transform="translate(584.7073059082031,910.8797454833984)"/>
<path d="M0 0 C1.38076679 0.00197863 2.76154092 0.00085817 4.14230347 -0.00309753 C7.86125978 -0.00509214 11.57861028 0.03583112 15.29719591 0.08492017 C19.19417028 0.12891478 23.09118841 0.13280967 26.9883728 0.14109802 C34.35491302 0.1627864 41.72071918 0.22013521 49.08693731 0.29054445 C57.47868295 0.36900131 65.87046512 0.40732775 74.2624867 0.4424125 C91.51321549 0.51542548 108.76293412 0.64370902 126.01318359 0.79467773 C126.01318359 11.35467773 126.01318359 21.91467773 126.01318359 32.79467773 C117.76318359 32.79467773 109.51318359 32.79467773 101.01318359 32.79467773 C101.01318359 38.73467773 101.01318359 44.67467773 101.01318359 50.79467773 C40.62318359 50.79467773 -19.76681641 50.79467773 -81.98681641 50.79467773 C-79.38365323 48.19151455 -77.42061586 46.24991784 -74.51025391 44.23608398 C-73.84912598 43.77476074 -73.18799805 43.3134375 -72.50683594 42.83813477 C-71.79897949 42.34941895 -71.09112305 41.86070312 -70.36181641 41.35717773 C-68.82477244 40.28379711 -67.28833338 39.20954985 -65.75244141 38.13452148 C-64.96289062 37.5826416 -64.17333984 37.03076172 -63.35986328 36.4621582 C-59.58832864 33.81199549 -55.84758883 31.11993327 -52.11181641 28.41967773 C-51.37495605 27.88721436 -50.6380957 27.35475098 -49.87890625 26.80615234 C-43.45725136 22.15472024 -37.07310061 17.45267866 -30.70605469 12.72680664 C-29.26916731 11.66297253 -27.82537094 10.60838159 -26.37355614 9.56501102 C-24.82697116 8.41785164 -23.31552959 7.22107687 -21.8515873 5.97016811 C-14.7389807 0.23652286 -8.93432359 -0.17660872 0 0 Z " fill="#FFFFFF" transform="translate(834.98681640625,117.205322265625)"/>
<path d="M0 0 C35.97 0 71.94 0 109 0 C105.72928516 2.18047656 102.5024233 3.28730906 98.80419922 4.48681641 C98.07338638 4.72785095 97.34257355 4.9688855 96.58961487 5.21722412 C94.16272748 6.01640384 91.73374956 6.80901952 89.3046875 7.6015625 C87.5975444 8.16209393 85.89052537 8.72300334 84.18362427 9.28427124 C79.66702924 10.76816668 75.14860055 12.24640306 70.62982178 13.72363281 C67.0177639 14.90548438 63.40702691 16.09133875 59.79635239 17.2774086 C48.86918869 20.8668272 37.9371814 24.44122276 27 28 C25.94133476 28.34453468 25.94133476 28.34453468 24.86128235 28.69602966 C20.59960152 30.08215942 16.33576346 31.461442 12.0703125 32.8359375 C11.05170135 33.16614899 10.03309021 33.49636047 8.98361206 33.83657837 C8.07394684 34.12817841 7.16428162 34.41977844 6.22705078 34.72021484 C5.45032013 34.97024261 4.67358948 35.22027039 3.87332153 35.47787476 C2 36 2 36 0 36 C0 24.12 0 12.24 0 0 Z " fill="#FFFFFF" transform="translate(443,118)"/>
<path d="" fill="#58C3D7" transform="translate(0,0)"/>
<path d="" fill="#6CCADC" transform="translate(0,0)"/>
<path d="" fill="#64C7DA" transform="translate(0,0)"/>
<path d="" fill="#60C5D9" transform="translate(0,0)"/>
</svg>
